<svg width="242" height="29" viewBox="0 0 242 29" fill="none" xmlns="http://www.w3.org/2000/svg">
<path d="M9.84375 2.8125C9.05625 2.8125 8.4375 2.19375 8.4375 1.40625C8.4375 0.618751 9.05625 0 9.84375 0C10.6312 0 11.25 0.618751 11.25 1.40625C11.25 2.19375 10.6312 2.8125 9.84375 2.8125ZM12.6562 2.8125C11.8687 2.8125 11.25 2.19375 11.25 1.40625C11.25 0.618751 11.8687 0 12.6562 0C13.4437 0 14.0625 0.618751 14.0625 1.40625C14.0625 2.19375 13.4437 2.8125 12.6562 2.8125ZM7.03125 2.8125C6.24375 2.8125 5.625 2.19375 5.625 1.40625C5.625 0.618751 6.24375 0 7.03125 0C7.81875 0 8.4375 0.618751 8.4375 1.40625C8.4375 2.19375 7.81875 2.8125 7.03125 2.8125ZM1.40625 2.8125C0.61875 2.8125 0 2.19375 0 1.40625C0 0.618751 0.61875 0 1.40625 0C2.19375 0 2.8125 0.618751 2.8125 1.40625C2.8125 2.19375 2.19375 2.8125 1.40625 2.8125ZM4.21875 2.8125C3.43125 2.8125 2.8125 2.19375 2.8125 1.40625C2.8125 0.618751 3.43125 0 4.21875 0C5.00625 0 5.625 0.618751 5.625 1.40625C5.625 2.19375 5.00625 2.8125 4.21875 2.8125ZM9.84375 5.625C9.05625 5.625 8.4375 5.00625 8.4375 4.21875C8.4375 3.43125 9.05625 2.8125 9.84375 2.8125C10.6312 2.8125 11.25 3.43125 11.25 4.21875C11.25 5.00625 10.6312 5.625 9.84375 5.625ZM15.4688 5.625C14.6812 5.625 14.0625 5.00625 14.0625 4.21875C14.0625 3.43125 14.6812 2.8125 15.4688 2.8125C16.2562 2.8125 16.875 3.43125 16.875 4.21875C16.875 5.00625 16.2562 5.625 15.4688 5.625ZM12.6562 5.625C11.8687 5.625 11.25 5.00625 11.25 4.21875C11.25 3.43125 11.8687 2.8125 12.6562 2.8125C13.4437 2.8125 14.0625 3.43125 14.0625 4.21875C14.0625 5.00625 13.4437 5.625 12.6562 5.625ZM7.03125 5.625C6.24375 5.625 5.625 5.00625 5.625 4.21875C5.625 3.43125 6.24375 2.8125 7.03125 2.8125C7.81875 2.8125 8.4375 3.43125 8.4375 4.21875C8.4375 5.00625 7.81875 5.625 7.03125 5.625ZM1.40625 5.625C0.61875 5.625 0 5.00625 0 4.21875C0 3.43125 0.61875 2.8125 1.40625 2.8125C2.19375 2.8125 2.8125 3.43125 2.8125 4.21875C2.8125 5.00625 2.19375 5.625 1.40625 5.625ZM4.21875 5.625C3.43125 5.625 2.8125 5.00625 2.8125 4.21875C2.8125 3.43125 3.43125 2.8125 4.21875 2.8125C5.00625 2.8125 5.625 3.43125 5.625 4.21875C5.625 5.00625 5.00625 5.625 4.21875 5.625ZM18.2812 8.4375C17.4937 8.4375 16.875 7.81875 16.875 7.03125C16.875 6.24375 17.4937 5.625 18.2812 5.625C19.0687 5.625 19.6875 6.24375 19.6875 7.03125C19.6875 7.81875 19.0687 8.4375 18.2812 8.4375ZM15.4688 8.4375C14.6812 8.4375 14.0625 7.81875 14.0625 7.03125C14.0625 6.24375 14.6812 5.625 15.4688 5.625C16.2562 5.625 16.875 6.24375 16.875 7.03125C16.875 7.81875 16.2562 8.4375 15.4688 8.4375ZM4.21875 8.4375C3.43125 8.4375 2.8125 7.81875 2.8125 7.03125C2.8125 6.24375 3.43125 5.625 4.21875 5.625C5.00625 5.625 5.625 6.24375 5.625 7.03125C5.625 7.81875 5.00625 8.4375 4.21875 8.4375ZM1.40625 8.4375C0.61875 8.4375 0 7.81875 0 7.03125C0 6.24375 0.61875 5.625 1.40625 5.625C2.19375 5.625 2.8125 6.24375 2.8125 7.03125C2.8125 7.81875 2.19375 8.4375 1.40625 8.4375ZM1.40625 11.25C0.61875 11.25 0 10.6313 0 9.84375C0 9.05625 0.61875 8.4375 1.40625 8.4375C2.19375 8.4375 2.8125 9.05625 2.8125 9.84375C2.8125 10.6313 2.19375 11.25 1.40625 11.25ZM15.4688 11.25C14.6812 11.25 14.0625 10.6313 14.0625 9.84375C14.0625 9.05625 14.6812 8.4375 15.4688 8.4375C16.2562 8.4375 16.875 9.05625 16.875 9.84375C16.875 10.6313 16.2562 11.25 15.4688 11.25ZM18.2812 11.25C17.4937 11.25 16.875 10.6313 16.875 9.84375C16.875 9.05625 17.4937 8.4375 18.2812 8.4375C19.0687 8.4375 19.6875 9.05625 19.6875 9.84375C19.6875 10.6313 19.0687 11.25 18.2812 11.25ZM4.21875 11.25C3.43125 11.25 2.8125 10.6313 2.8125 9.84375C2.8125 9.05625 3.43125 8.4375 4.21875 8.4375C5.00625 8.4375 5.625 9.05625 5.625 9.84375C5.625 10.6313 5.00625 11.25 4.21875 11.25ZM1.40625 14.0625C0.61875 14.0625 0 13.4438 0 12.6562C0 11.8688 0.61875 11.25 1.40625 11.25C2.19375 11.25 2.8125 11.8688 2.8125 12.6562C2.8125 13.4438 2.19375 14.0625 1.40625 14.0625ZM4.21875 14.0625C3.43125 14.0625 2.8125 13.4438 2.8125 12.6562C2.8125 11.8688 3.43125 11.25 4.21875 11.25C5.00625 11.25 5.625 11.8688 5.625 12.6562C5.625 13.4438 5.00625 14.0625 4.21875 14.0625ZM15.4688 14.0625C14.6812 14.0625 14.0625 13.4438 14.0625 12.6562C14.0625 11.8688 14.6812 11.25 15.4688 11.25C16.2562 11.25 16.875 11.8688 16.875 12.6562C16.875 13.4438 16.2562 14.0625 15.4688 14.0625ZM18.2812 14.0625C17.4937 14.0625 16.875 13.4438 16.875 12.6562C16.875 11.8688 17.4937 11.25 18.2812 11.25C19.0687 11.25 19.6875 11.8688 19.6875 12.6562C19.6875 13.4438 19.0687 14.0625 18.2812 14.0625ZM1.40625 16.875C0.61875 16.875 0 16.2563 0 15.4688C0 14.6813 0.61875 14.0625 1.40625 14.0625C2.19375 14.0625 2.8125 14.6813 2.8125 15.4688C2.8125 16.2563 2.19375 16.875 1.40625 16.875ZM15.4688 16.875C14.6812 16.875 14.0625 16.2563 14.0625 15.4688C14.0625 14.6813 14.6812 14.0625 15.4688 14.0625C16.2562 14.0625 16.875 14.6813 16.875 15.4688C16.875 16.2563 16.2562 16.875 15.4688 16.875ZM4.21875 16.875C3.43125 16.875 2.8125 16.2563 2.8125 15.4688C2.8125 14.6813 3.43125 14.0625 4.21875 14.0625C5.00625 14.0625 5.625 14.6813 5.625 15.4688C5.625 16.2563 5.00625 16.875 4.21875 16.875ZM12.6562 16.875C11.8687 16.875 11.25 16.2563 11.25 15.4688C11.25 14.6813 11.8687 14.0625 12.6562 14.0625C13.4437 14.0625 14.0625 14.6813 14.0625 15.4688C14.0625 16.2563 13.4437 16.875 12.6562 16.875ZM9.84375 16.875C9.05625 16.875 8.4375 16.2563 8.4375 15.4688C8.4375 14.6813 9.05625 14.0625 9.84375 14.0625C10.6312 14.0625 11.25 14.6813 11.25 15.4688C11.25 16.2563 10.6312 16.875 9.84375 16.875ZM7.03125 16.875C6.24375 16.875 5.625 16.2563 5.625 15.4688C5.625 14.6813 6.24375 14.0625 7.03125 14.0625C7.81875 14.0625 8.4375 14.6813 8.4375 15.4688C8.4375 16.2563 7.81875 16.875 7.03125 16.875ZM1.40625 19.6875C0.61875 19.6875 0 19.0687 0 18.2812C0 17.4938 0.61875 16.875 1.40625 16.875C2.19375 16.875 2.8125 17.4938 2.8125 18.2812C2.8125 19.0687 2.19375 19.6875 1.40625 19.6875ZM4.21875 19.6875C3.43125 19.6875 2.8125 19.0687 2.8125 18.2812C2.8125 17.4938 3.43125 16.875 4.21875 16.875C5.00625 16.875 5.625 17.4938 5.625 18.2812C5.625 19.0687 5.00625 19.6875 4.21875 19.6875ZM12.6562 19.6875C11.8687 19.6875 11.25 19.0687 11.25 18.2812C11.25 17.4938 11.8687 16.875 12.6562 16.875C13.4437 16.875 14.0625 17.4938 14.0625 18.2812C14.0625 19.0687 13.4437 19.6875 12.6562 19.6875ZM9.84375 19.6875C9.05625 19.6875 8.4375 19.0687 8.4375 18.2812C8.4375 17.4938 9.05625 16.875 9.84375 16.875C10.6312 16.875 11.25 17.4938 11.25 18.2812C11.25 19.0687 10.6312 19.6875 9.84375 19.6875ZM7.03125 19.6875C6.24375 19.6875 5.625 19.0687 5.625 18.2812C5.625 17.4938 6.24375 16.875 7.03125 16.875C7.81875 16.875 8.4375 17.4938 8.4375 18.2812C8.4375 19.0687 7.81875 19.6875 7.03125 19.6875ZM1.40625 22.5C0.61875 22.5 0 21.8812 0 21.0938C0 20.3063 0.61875 19.6875 1.40625 19.6875C2.19375 19.6875 2.8125 20.3063 2.8125 21.0938C2.8125 21.8812 2.19375 22.5 1.40625 22.5ZM4.21875 22.5C3.43125 22.5 2.8125 21.8812 2.8125 21.0938C2.8125 20.3063 3.43125 19.6875 4.21875 19.6875C5.00625 19.6875 5.625 20.3063 5.625 21.0938C5.625 21.8812 5.00625 22.5 4.21875 22.5ZM1.40625 25.3125C0.61875 25.3125 0 24.6937 0 23.9062C0 23.1188 0.61875 22.5 1.40625 22.5C2.19375 22.5 2.8125 23.1188 2.8125 23.9062C2.8125 24.6937 2.19375 25.3125 1.40625 25.3125ZM4.21875 25.3125C3.43125 25.3125 2.8125 24.6937 2.8125 23.9062C2.8125 23.1188 3.43125 22.5 4.21875 22.5C5.00625 22.5 5.625 23.1188 5.625 23.9062C5.625 24.6937 5.00625 25.3125 4.21875 25.3125ZM1.40625 28.125C0.61875 28.125 0 27.5063 0 26.7188C0 25.9313 0.61875 25.3125 1.40625 25.3125C2.19375 25.3125 2.8125 25.9313 2.8125 26.7188C2.8125 27.5063 2.19375 28.125 1.40625 28.125ZM4.21875 28.125C3.43125 28.125 2.8125 27.5063 2.8125 26.7188C2.8125 25.9313 3.43125 25.3125 4.21875 25.3125C5.00625 25.3125 5.625 25.9313 5.625 26.7188C5.625 27.5063 5.00625 28.125 4.21875 28.125Z" fill="#F6F6F6"/>
<path d="M23.9062 2.8125C23.1187 2.8125 22.5 2.19375 22.5 1.40625C22.5 0.618751 23.1187 0 23.9062 0C24.6937 0 25.3125 0.618751 25.3125 1.40625C25.3125 2.19375 24.6937 2.8125 23.9062 2.8125ZM26.7188 2.8125C25.9313 2.8125 25.3125 2.19375 25.3125 1.40625C25.3125 0.618751 25.9313 0 26.7188 0C27.5062 0 28.125 0.618751 28.125 1.40625C28.125 2.19375 27.5062 2.8125 26.7188 2.8125ZM23.9062 5.625C23.1187 5.625 22.5 5.00625 22.5 4.21875C22.5 3.43125 23.1187 2.8125 23.9062 2.8125C24.6937 2.8125 25.3125 3.43125 25.3125 4.21875C25.3125 5.00625 24.6937 5.625 23.9062 5.625ZM26.7188 5.625C25.9313 5.625 25.3125 5.00625 25.3125 4.21875C25.3125 3.43125 25.9313 2.8125 26.7188 2.8125C27.5062 2.8125 28.125 3.43125 28.125 4.21875C28.125 5.00625 27.5062 5.625 26.7188 5.625ZM23.9062 8.4375C23.1187 8.4375 22.5 7.81875 22.5 7.03125C22.5 6.24375 23.1187 5.625 23.9062 5.625C24.6937 5.625 25.3125 6.24375 25.3125 7.03125C25.3125 7.81875 24.6937 8.4375 23.9062 8.4375ZM26.7188 8.4375C25.9313 8.4375 25.3125 7.81875 25.3125 7.03125C25.3125 6.24375 25.9313 5.625 26.7188 5.625C27.5062 5.625 28.125 6.24375 28.125 7.03125C28.125 7.81875 27.5062 8.4375 26.7188 8.4375ZM23.9062 11.25C23.1187 11.25 22.5 10.6313 22.5 9.84375C22.5 9.05625 23.1187 8.4375 23.9062 8.4375C24.6937 8.4375 25.3125 9.05625 25.3125 9.84375C25.3125 10.6313 24.6937 11.25 23.9062 11.25ZM26.7188 11.25C25.9313 11.25 25.3125 10.6313 25.3125 9.84375C25.3125 9.05625 25.9313 8.4375 26.7188 8.4375C27.5062 8.4375 28.125 9.05625 28.125 9.84375C28.125 10.6313 27.5062 11.25 26.7188 11.25ZM23.9062 14.0625C23.1187 14.0625 22.5 13.4438 22.5 12.6562C22.5 11.8688 23.1187 11.25 23.9062 11.25C24.6937 11.25 25.3125 11.8688 25.3125 12.6562C25.3125 13.4438 24.6937 14.0625 23.9062 14.0625ZM26.7188 14.0625C25.9313 14.0625 25.3125 13.4438 25.3125 12.6562C25.3125 11.8688 25.9313 11.25 26.7188 11.25C27.5062 11.25 28.125 11.8688 28.125 12.6562C28.125 13.4438 27.5062 14.0625 26.7188 14.0625ZM23.9062 16.875C23.1187 16.875 22.5 16.2563 22.5 15.4688C22.5 14.6813 23.1187 14.0625 23.9062 14.0625C24.6937 14.0625 25.3125 14.6813 25.3125 15.4688C25.3125 16.2563 24.6937 16.875 23.9062 16.875ZM26.7188 16.875C25.9313 16.875 25.3125 16.2563 25.3125 15.4688C25.3125 14.6813 25.9313 14.0625 26.7188 14.0625C27.5062 14.0625 28.125 14.6813 28.125 15.4688C28.125 16.2563 27.5062 16.875 26.7188 16.875ZM23.9062 19.6875C23.1187 19.6875 22.5 19.0687 22.5 18.2812C22.5 17.4938 23.1187 16.875 23.9062 16.875C24.6937 16.875 25.3125 17.4938 25.3125 18.2812C25.3125 19.0687 24.6937 19.6875 23.9062 19.6875ZM26.7188 19.6875C25.9313 19.6875 25.3125 19.0687 25.3125 18.2812C25.3125 17.4938 25.9313 16.875 26.7188 16.875C27.5062 16.875 28.125 17.4938 28.125 18.2812C28.125 19.0687 27.5062 19.6875 26.7188 19.6875ZM23.9062 22.5C23.1187 22.5 22.5 21.8812 22.5 21.0938C22.5 20.3063 23.1187 19.6875 23.9062 19.6875C24.6937 19.6875 25.3125 20.3063 25.3125 21.0938C25.3125 21.8812 24.6937 22.5 23.9062 22.5ZM26.7188 22.5C25.9313 22.5 25.3125 21.8812 25.3125 21.0938C25.3125 20.3063 25.9313 19.6875 26.7188 19.6875C27.5062 19.6875 28.125 20.3063 28.125 21.0938C28.125 21.8812 27.5062 22.5 26.7188 22.5ZM23.9062 25.3125C23.1187 25.3125 22.5 24.6937 22.5 23.9062C22.5 23.1188 23.1187 22.5 23.9062 22.5C24.6937 22.5 25.3125 23.1188 25.3125 23.9062C25.3125 24.6937 24.6937 25.3125 23.9062 25.3125ZM26.7188 25.3125C25.9313 25.3125 25.3125 24.6937 25.3125 23.9062C25.3125 23.1188 25.9313 22.5 26.7188 22.5C27.5062 22.5 28.125 23.1188 28.125 23.9062C28.125 24.6937 27.5062 25.3125 26.7188 25.3125ZM35.1562 25.3125C34.3687 25.3125 33.75 24.6937 33.75 23.9062C33.75 23.1188 34.3687 22.5 35.1562 22.5C35.9437 22.5 36.5625 23.1188 36.5625 23.9062C36.5625 24.6937 35.9437 25.3125 35.1562 25.3125ZM32.3438 25.3125C31.5563 25.3125 30.9375 24.6937 30.9375 23.9062C30.9375 23.1188 31.5563 22.5 32.3438 22.5C33.1312 22.5 33.75 23.1188 33.75 23.9062C33.75 24.6937 33.1312 25.3125 32.3438 25.3125ZM29.5312 25.3125C28.7438 25.3125 28.125 24.6937 28.125 23.9062C28.125 23.1188 28.7438 22.5 29.5312 22.5C30.3187 22.5 30.9375 23.1188 30.9375 23.9062C30.9375 24.6937 30.3187 25.3125 29.5312 25.3125ZM37.9688 25.3125C37.1812 25.3125 36.5625 24.6937 36.5625 23.9062C36.5625 23.1188 37.1812 22.5 37.9688 22.5C38.7562 22.5 39.375 23.1188 39.375 23.9062C39.375 24.6937 38.7562 25.3125 37.9688 25.3125ZM23.9062 28.125C23.1187 28.125 22.5 27.5063 22.5 26.7188C22.5 25.9313 23.1187 25.3125 23.9062 25.3125C24.6937 25.3125 25.3125 25.9313 25.3125 26.7188C25.3125 27.5063 24.6937 28.125 23.9062 28.125ZM26.7188 28.125C25.9313 28.125 25.3125 27.5063 25.3125 26.7188C25.3125 25.9313 25.9313 25.3125 26.7188 25.3125C27.5062 25.3125 28.125 25.9313 28.125 26.7188C28.125 27.5063 27.5062 28.125 26.7188 28.125ZM29.5312 28.125C28.7438 28.125 28.125 27.5063 28.125 26.7188C28.125 25.9313 28.7438 25.3125 29.5312 25.3125C30.3187 25.3125 30.9375 25.9313 30.9375 26.7188C30.9375 27.5063 30.3187 28.125 29.5312 28.125ZM32.3438 28.125C31.5563 28.125 30.9375 27.5063 30.9375 26.7188C30.9375 25.9313 31.5563 25.3125 32.3438 25.3125C33.1312 25.3125 33.75 25.9313 33.75 26.7188C33.75 27.5063 33.1312 28.125 32.3438 28.125ZM35.1562 28.125C34.3687 28.125 33.75 27.5063 33.75 26.7188C33.75 25.9313 34.3687 25.3125 35.1562 25.3125C35.9437 25.3125 36.5625 25.9313 36.5625 26.7188C36.5625 27.5063 35.9437 28.125 35.1562 28.125ZM37.9688 28.125C37.1812 28.125 36.5625 27.5063 36.5625 26.7188C36.5625 25.9313 37.1812 25.3125 37.9688 25.3125C38.7562 25.3125 39.375 25.9313 39.375 26.7188C39.375 27.5063 38.7562 28.125 37.9688 28.125Z" fill="#F6F6F6"/>
<path d="M52.0312 2.8125C51.2438 2.8125 50.625 2.19375 50.625 1.40625C50.625 0.618751 51.2438 0 52.0312 0C52.8187 0 53.4375 0.618751 53.4375 1.40625C53.4375 2.19375 52.8187 2.8125 52.0312 2.8125ZM54.8438 2.8125C54.0562 2.8125 53.4375 2.19375 53.4375 1.40625C53.4375 0.618751 54.0562 0 54.8438 0C55.6312 0 56.25 0.618751 56.25 1.40625C56.25 2.19375 55.6312 2.8125 54.8438 2.8125ZM52.0312 5.625C51.2438 5.625 50.625 5.00625 50.625 4.21875C50.625 3.43125 51.2438 2.8125 52.0312 2.8125C52.8187 2.8125 53.4375 3.43125 53.4375 4.21875C53.4375 5.00625 52.8187 5.625 52.0312 5.625ZM54.8438 5.625C54.0562 5.625 53.4375 5.00625 53.4375 4.21875C53.4375 3.43125 54.0562 2.8125 54.8438 2.8125C55.6312 2.8125 56.25 3.43125 56.25 4.21875C56.25 5.00625 55.6312 5.625 54.8438 5.625ZM52.0312 8.4375C51.2438 8.4375 50.625 7.81875 50.625 7.03125C50.625 6.24375 51.2438 5.625 52.0312 5.625C52.8187 5.625 53.4375 6.24375 53.4375 7.03125C53.4375 7.81875 52.8187 8.4375 52.0312 8.4375ZM57.6562 8.4375C56.8687 8.4375 56.25 7.81875 56.25 7.03125C56.25 6.24375 56.8687 5.625 57.6562 5.625C58.4437 5.625 59.0625 6.24375 59.0625 7.03125C59.0625 7.81875 58.4437 8.4375 57.6562 8.4375ZM49.2188 8.4375C48.4313 8.4375 47.8125 7.81875 47.8125 7.03125C47.8125 6.24375 48.4313 5.625 49.2188 5.625C50.0062 5.625 50.625 6.24375 50.625 7.03125C50.625 7.81875 50.0062 8.4375 49.2188 8.4375ZM54.8438 8.4375C54.0562 8.4375 53.4375 7.81875 53.4375 7.03125C53.4375 6.24375 54.0562 5.625 54.8438 5.625C55.6312 5.625 56.25 6.24375 56.25 7.03125C56.25 7.81875 55.6312 8.4375 54.8438 8.4375ZM57.6562 11.25C56.8687 11.25 56.25 10.6313 56.25 9.84375C56.25 9.05625 56.8687 8.4375 57.6562 8.4375C58.4437 8.4375 59.0625 9.05625 59.0625 9.84375C59.0625 10.6313 58.4437 11.25 57.6562 11.25ZM49.2188 11.25C48.4313 11.25 47.8125 10.6313 47.8125 9.84375C47.8125 9.05625 48.4313 8.4375 49.2188 8.4375C50.0062 8.4375 50.625 9.05625 50.625 9.84375C50.625 10.6313 50.0062 11.25 49.2188 11.25ZM52.0312 11.25C51.2438 11.25 50.625 10.6313 50.625 9.84375C50.625 9.05625 51.2438 8.4375 52.0312 8.4375C52.8187 8.4375 53.4375 9.05625 53.4375 9.84375C53.4375 10.6313 52.8187 11.25 52.0312 11.25ZM54.8438 11.25C54.0562 11.25 53.4375 10.6313 53.4375 9.84375C53.4375 9.05625 54.0562 8.4375 54.8438 8.4375C55.6312 8.4375 56.25 9.05625 56.25 9.84375C56.25 10.6313 55.6312 11.25 54.8438 11.25ZM57.6562 14.0625C56.8687 14.0625 56.25 13.4438 56.25 12.6562C56.25 11.8688 56.8687 11.25 57.6562 11.25C58.4437 11.25 59.0625 11.8688 59.0625 12.6562C59.0625 13.4438 58.4437 14.0625 57.6562 14.0625ZM49.2188 14.0625C48.4313 14.0625 47.8125 13.4438 47.8125 12.6562C47.8125 11.8688 48.4313 11.25 49.2188 11.25C50.0062 11.25 50.625 11.8688 50.625 12.6562C50.625 13.4438 50.0062 14.0625 49.2188 14.0625ZM60.4688 14.0625C59.6812 14.0625 59.0625 13.4438 59.0625 12.6562C59.0625 11.8688 59.6812 11.25 60.4688 11.25C61.2562 11.25 61.875 11.8688 61.875 12.6562C61.875 13.4438 61.2562 14.0625 60.4688 14.0625ZM46.4062 14.0625C45.6188 14.0625 45 13.4438 45 12.6562C45 11.8688 45.6188 11.25 46.4062 11.25C47.1937 11.25 47.8125 11.8688 47.8125 12.6562C47.8125 13.4438 47.1937 14.0625 46.4062 14.0625ZM60.4688 16.875C59.6812 16.875 59.0625 16.2563 59.0625 15.4688C59.0625 14.6813 59.6812 14.0625 60.4688 14.0625C61.2562 14.0625 61.875 14.6813 61.875 15.4688C61.875 16.2563 61.2562 16.875 60.4688 16.875ZM46.4062 16.875C45.6188 16.875 45 16.2563 45 15.4688C45 14.6813 45.6188 14.0625 46.4062 14.0625C47.1937 14.0625 47.8125 14.6813 47.8125 15.4688C47.8125 16.2563 47.1937 16.875 46.4062 16.875ZM57.6562 16.875C56.8687 16.875 56.25 16.2563 56.25 15.4688C56.25 14.6813 56.8687 14.0625 57.6562 14.0625C58.4437 14.0625 59.0625 14.6813 59.0625 15.4688C59.0625 16.2563 58.4437 16.875 57.6562 16.875ZM49.2188 16.875C48.4313 16.875 47.8125 16.2563 47.8125 15.4688C47.8125 14.6813 48.4313 14.0625 49.2188 14.0625C50.0062 14.0625 50.625 14.6813 50.625 15.4688C50.625 16.2563 50.0062 16.875 49.2188 16.875ZM60.4688 19.6875C59.6812 19.6875 59.0625 19.0687 59.0625 18.2812C59.0625 17.4938 59.6812 16.875 60.4688 16.875C61.2562 16.875 61.875 17.4938 61.875 18.2812C61.875 19.0687 61.2562 19.6875 60.4688 19.6875ZM46.4062 19.6875C45.6188 19.6875 45 19.0687 45 18.2812C45 17.4938 45.6188 16.875 46.4062 16.875C47.1937 16.875 47.8125 17.4938 47.8125 18.2812C47.8125 19.0687 47.1937 19.6875 46.4062 19.6875ZM57.6562 19.6875C56.8687 19.6875 56.25 19.0687 56.25 18.2812C56.25 17.4938 56.8687 16.875 57.6562 16.875C58.4437 16.875 59.0625 17.4938 59.0625 18.2812C59.0625 19.0687 58.4437 19.6875 57.6562 19.6875ZM54.8438 19.6875C54.0562 19.6875 53.4375 19.0687 53.4375 18.2812C53.4375 17.4938 54.0562 16.875 54.8438 16.875C55.6312 16.875 56.25 17.4938 56.25 18.2812C56.25 19.0687 55.6312 19.6875 54.8438 19.6875ZM52.0312 19.6875C51.2438 19.6875 50.625 19.0687 50.625 18.2812C50.625 17.4938 51.2438 16.875 52.0312 16.875C52.8187 16.875 53.4375 17.4938 53.4375 18.2812C53.4375 19.0687 52.8187 19.6875 52.0312 19.6875ZM49.2188 19.6875C48.4313 19.6875 47.8125 19.0687 47.8125 18.2812C47.8125 17.4938 48.4313 16.875 49.2188 16.875C50.0062 16.875 50.625 17.4938 50.625 18.2812C50.625 19.0687 50.0062 19.6875 49.2188 19.6875ZM57.6562 22.5C56.8687 22.5 56.25 21.8812 56.25 21.0938C56.25 20.3063 56.8687 19.6875 57.6562 19.6875C58.4437 19.6875 59.0625 20.3063 59.0625 21.0938C59.0625 21.8812 58.4437 22.5 57.6562 22.5ZM54.8438 22.5C54.0562 22.5 53.4375 21.8812 53.4375 21.0938C53.4375 20.3063 54.0562 19.6875 54.8438 19.6875C55.6312 19.6875 56.25 20.3063 56.25 21.0938C56.25 21.8812 55.6312 22.5 54.8438 22.5ZM52.0312 22.5C51.2438 22.5 50.625 21.8812 50.625 21.0938C50.625 20.3063 51.2438 19.6875 52.0312 19.6875C52.8187 19.6875 53.4375 20.3063 53.4375 21.0938C53.4375 21.8812 52.8187 22.5 52.0312 22.5ZM49.2188 22.5C48.4313 22.5 47.8125 21.8812 47.8125 21.0938C47.8125 20.3063 48.4313 19.6875 49.2188 19.6875C50.0062 19.6875 50.625 20.3063 50.625 21.0938C50.625 21.8812 50.0062 22.5 49.2188 22.5ZM60.4688 22.5C59.6812 22.5 59.0625 21.8812 59.0625 21.0938C59.0625 20.3063 59.6812 19.6875 60.4688 19.6875C61.2562 19.6875 61.875 20.3063 61.875 21.0938C61.875 21.8812 61.2562 22.5 60.4688 22.5ZM46.4062 22.5C45.6188 22.5 45 21.8812 45 21.0938C45 20.3063 45.6188 19.6875 46.4062 19.6875C47.1937 19.6875 47.8125 20.3063 47.8125 21.0938C47.8125 21.8812 47.1937 22.5 46.4062 22.5ZM43.5938 22.5C42.8062 22.5 42.1875 21.8812 42.1875 21.0938C42.1875 20.3063 42.8062 19.6875 43.5938 19.6875C44.3812 19.6875 45 20.3063 45 21.0938C45 21.8812 44.3812 22.5 43.5938 22.5ZM63.2812 22.5C62.4937 22.5 61.875 21.8812 61.875 21.0938C61.875 20.3063 62.4937 19.6875 63.2812 19.6875C64.0687 19.6875 64.6875 20.3063 64.6875 21.0938C64.6875 21.8812 64.0687 22.5 63.2812 22.5ZM46.4062 25.3125C45.6188 25.3125 45 24.6937 45 23.9062C45 23.1188 45.6188 22.5 46.4062 22.5C47.1937 22.5 47.8125 23.1188 47.8125 23.9062C47.8125 24.6937 47.1937 25.3125 46.4062 25.3125ZM60.4688 25.3125C59.6812 25.3125 59.0625 24.6937 59.0625 23.9062C59.0625 23.1188 59.6812 22.5 60.4688 22.5C61.2562 22.5 61.875 23.1188 61.875 23.9062C61.875 24.6937 61.2562 25.3125 60.4688 25.3125ZM63.2812 25.3125C62.4937 25.3125 61.875 24.6937 61.875 23.9062C61.875 23.1188 62.4937 22.5 63.2812 22.5C64.0687 22.5 64.6875 23.1188 64.6875 23.9062C64.6875 24.6937 64.0687 25.3125 63.2812 25.3125ZM43.5938 25.3125C42.8062 25.3125 42.1875 24.6937 42.1875 23.9062C42.1875 23.1188 42.8062 22.5 43.5938 22.5C44.3812 22.5 45 23.1188 45 23.9062C45 24.6937 44.3812 25.3125 43.5938 25.3125ZM46.4062 28.125C45.6188 28.125 45 27.5063 45 26.7188C45 25.9313 45.6188 25.3125 46.4062 25.3125C47.1937 25.3125 47.8125 25.9313 47.8125 26.7188C47.8125 27.5063 47.1937 28.125 46.4062 28.125ZM60.4688 28.125C59.6812 28.125 59.0625 27.5063 59.0625 26.7188C59.0625 25.9313 59.6812 25.3125 60.4688 25.3125C61.2562 25.3125 61.875 25.9313 61.875 26.7188C61.875 27.5063 61.2562 28.125 60.4688 28.125ZM43.5938 28.125C42.8062 28.125 42.1875 27.5063 42.1875 26.7188C42.1875 25.9313 42.8062 25.3125 43.5938 25.3125C44.3812 25.3125 45 25.9313 45 26.7188C45 27.5063 44.3812 28.125 43.5938 28.125ZM63.2812 28.125C62.4937 28.125 61.875 27.5063 61.875 26.7188C61.875 25.9313 62.4937 25.3125 63.2812 25.3125C64.0687 25.3125 64.6875 25.9313 64.6875 26.7188C64.6875 27.5063 64.0687 28.125 63.2812 28.125Z" fill="#F6F6F6"/>
<path d="M82.9688 2.8125C82.1812 2.8125 81.5625 2.19375 81.5625 1.40625C81.5625 0.618751 82.1812 0 82.9688 0C83.7562 0 84.375 0.618751 84.375 1.40625C84.375 2.19375 83.7562 2.8125 82.9688 2.8125ZM85.7812 2.8125C84.9937 2.8125 84.375 2.19375 84.375 1.40625C84.375 0.618751 84.9937 0 85.7812 0C86.5687 0 87.1875 0.618751 87.1875 1.40625C87.1875 2.19375 86.5687 2.8125 85.7812 2.8125ZM66.0938 2.8125C65.3062 2.8125 64.6875 2.19375 64.6875 1.40625C64.6875 0.618751 65.3062 0 66.0938 0C66.8812 0 67.5 0.618751 67.5 1.40625C67.5 2.19375 66.8812 2.8125 66.0938 2.8125ZM68.9062 2.8125C68.1188 2.8125 67.5 2.19375 67.5 1.40625C67.5 0.618751 68.1188 0 68.9062 0C69.6937 0 70.3125 0.618751 70.3125 1.40625C70.3125 2.19375 69.6937 2.8125 68.9062 2.8125ZM82.9688 5.625C82.1812 5.625 81.5625 5.00625 81.5625 4.21875C81.5625 3.43125 82.1812 2.8125 82.9688 2.8125C83.7562 2.8125 84.375 3.43125 84.375 4.21875C84.375 5.00625 83.7562 5.625 82.9688 5.625ZM85.7812 5.625C84.9937 5.625 84.375 5.00625 84.375 4.21875C84.375 3.43125 84.9937 2.8125 85.7812 2.8125C86.5687 2.8125 87.1875 3.43125 87.1875 4.21875C87.1875 5.00625 86.5687 5.625 85.7812 5.625ZM68.9062 5.625C68.1188 5.625 67.5 5.00625 67.5 4.21875C67.5 3.43125 68.1188 2.8125 68.9062 2.8125C69.6937 2.8125 70.3125 3.43125 70.3125 4.21875C70.3125 5.00625 69.6937 5.625 68.9062 5.625ZM66.0938 5.625C65.3062 5.625 64.6875 5.00625 64.6875 4.21875C64.6875 3.43125 65.3062 2.8125 66.0938 2.8125C66.8812 2.8125 67.5 3.43125 67.5 4.21875C67.5 5.00625 66.8812 5.625 66.0938 5.625ZM80.1562 8.4375C79.3687 8.4375 78.75 7.81875 78.75 7.03125C78.75 6.24375 79.3687 5.625 80.1562 5.625C80.9437 5.625 81.5625 6.24375 81.5625 7.03125C81.5625 7.81875 80.9437 8.4375 80.1562 8.4375ZM82.9688 8.4375C82.1812 8.4375 81.5625 7.81875 81.5625 7.03125C81.5625 6.24375 82.1812 5.625 82.9688 5.625C83.7562 5.625 84.375 6.24375 84.375 7.03125C84.375 7.81875 83.7562 8.4375 82.9688 8.4375ZM71.7188 8.4375C70.9313 8.4375 70.3125 7.81875 70.3125 7.03125C70.3125 6.24375 70.9313 5.625 71.7188 5.625C72.5062 5.625 73.125 6.24375 73.125 7.03125C73.125 7.81875 72.5062 8.4375 71.7188 8.4375ZM68.9062 8.4375C68.1188 8.4375 67.5 7.81875 67.5 7.03125C67.5 6.24375 68.1188 5.625 68.9062 5.625C69.6937 5.625 70.3125 6.24375 70.3125 7.03125C70.3125 7.81875 69.6937 8.4375 68.9062 8.4375ZM80.1562 11.25C79.3687 11.25 78.75 10.6313 78.75 9.84375C78.75 9.05625 79.3687 8.4375 80.1562 8.4375C80.9437 8.4375 81.5625 9.05625 81.5625 9.84375C81.5625 10.6313 80.9437 11.25 80.1562 11.25ZM82.9688 11.25C82.1812 11.25 81.5625 10.6313 81.5625 9.84375C81.5625 9.05625 82.1812 8.4375 82.9688 8.4375C83.7562 8.4375 84.375 9.05625 84.375 9.84375C84.375 10.6313 83.7562 11.25 82.9688 11.25ZM71.7188 11.25C70.9313 11.25 70.3125 10.6313 70.3125 9.84375C70.3125 9.05625 70.9313 8.4375 71.7188 8.4375C72.5062 8.4375 73.125 9.05625 73.125 9.84375C73.125 10.6313 72.5062 11.25 71.7188 11.25ZM68.9062 11.25C68.1188 11.25 67.5 10.6313 67.5 9.84375C67.5 9.05625 68.1188 8.4375 68.9062 8.4375C69.6937 8.4375 70.3125 9.05625 70.3125 9.84375C70.3125 10.6313 69.6937 11.25 68.9062 11.25ZM71.7188 14.0625C70.9313 14.0625 70.3125 13.4438 70.3125 12.6562C70.3125 11.8688 70.9313 11.25 71.7188 11.25C72.5062 11.25 73.125 11.8688 73.125 12.6562C73.125 13.4438 72.5062 14.0625 71.7188 14.0625ZM80.1562 14.0625C79.3687 14.0625 78.75 13.4438 78.75 12.6562C78.75 11.8688 79.3687 11.25 80.1562 11.25C80.9437 11.25 81.5625 11.8688 81.5625 12.6562C81.5625 13.4438 80.9437 14.0625 80.1562 14.0625ZM77.3438 14.0625C76.5562 14.0625 75.9375 13.4438 75.9375 12.6562C75.9375 11.8688 76.5562 11.25 77.3438 11.25C78.1312 11.25 78.75 11.8688 78.75 12.6562C78.75 13.4438 78.1312 14.0625 77.3438 14.0625ZM74.5312 14.0625C73.7438 14.0625 73.125 13.4438 73.125 12.6562C73.125 11.8688 73.7438 11.25 74.5312 11.25C75.3187 11.25 75.9375 11.8688 75.9375 12.6562C75.9375 13.4438 75.3187 14.0625 74.5312 14.0625ZM71.7188 16.875C70.9313 16.875 70.3125 16.2563 70.3125 15.4688C70.3125 14.6813 70.9313 14.0625 71.7188 14.0625C72.5062 14.0625 73.125 14.6813 73.125 15.4688C73.125 16.2563 72.5062 16.875 71.7188 16.875ZM80.1562 16.875C79.3687 16.875 78.75 16.2563 78.75 15.4688C78.75 14.6813 79.3687 14.0625 80.1562 14.0625C80.9437 14.0625 81.5625 14.6813 81.5625 15.4688C81.5625 16.2563 80.9437 16.875 80.1562 16.875ZM77.3438 16.875C76.5562 16.875 75.9375 16.2563 75.9375 15.4688C75.9375 14.6813 76.5562 14.0625 77.3438 14.0625C78.1312 14.0625 78.75 14.6813 78.75 15.4688C78.75 16.2563 78.1312 16.875 77.3438 16.875ZM74.5312 16.875C73.7438 16.875 73.125 16.2563 73.125 15.4688C73.125 14.6813 73.7438 14.0625 74.5312 14.0625C75.3187 14.0625 75.9375 14.6813 75.9375 15.4688C75.9375 16.2563 75.3187 16.875 74.5312 16.875ZM74.5312 19.6875C73.7438 19.6875 73.125 19.0687 73.125 18.2812C73.125 17.4938 73.7438 16.875 74.5312 16.875C75.3187 16.875 75.9375 17.4938 75.9375 18.2812C75.9375 19.0687 75.3187 19.6875 74.5312 19.6875ZM77.3438 19.6875C76.5562 19.6875 75.9375 19.0687 75.9375 18.2812C75.9375 17.4938 76.5562 16.875 77.3438 16.875C78.1312 16.875 78.75 17.4938 78.75 18.2812C78.75 19.0687 78.1312 19.6875 77.3438 19.6875ZM77.3438 22.5C76.5562 22.5 75.9375 21.8812 75.9375 21.0938C75.9375 20.3063 76.5562 19.6875 77.3438 19.6875C78.1312 19.6875 78.75 20.3063 78.75 21.0938C78.75 21.8812 78.1312 22.5 77.3438 22.5ZM74.5312 22.5C73.7438 22.5 73.125 21.8812 73.125 21.0938C73.125 20.3063 73.7438 19.6875 74.5312 19.6875C75.3187 19.6875 75.9375 20.3063 75.9375 21.0938C75.9375 21.8812 75.3187 22.5 74.5312 22.5ZM77.3438 25.3125C76.5562 25.3125 75.9375 24.6937 75.9375 23.9062C75.9375 23.1188 76.5562 22.5 77.3438 22.5C78.1312 22.5 78.75 23.1188 78.75 23.9062C78.75 24.6937 78.1312 25.3125 77.3438 25.3125ZM74.5312 25.3125C73.7438 25.3125 73.125 24.6937 73.125 23.9062C73.125 23.1188 73.7438 22.5 74.5312 22.5C75.3187 22.5 75.9375 23.1188 75.9375 23.9062C75.9375 24.6937 75.3187 25.3125 74.5312 25.3125ZM74.5312 28.125C73.7438 28.125 73.125 27.5063 73.125 26.7188C73.125 25.9313 73.7438 25.3125 74.5312 25.3125C75.3187 25.3125 75.9375 25.9313 75.9375 26.7188C75.9375 27.5063 75.3187 28.125 74.5312 28.125ZM77.3438 28.125C76.5562 28.125 75.9375 27.5063 75.9375 26.7188C75.9375 25.9313 76.5562 25.3125 77.3438 25.3125C78.1312 25.3125 78.75 25.9313 78.75 26.7188C78.75 27.5063 78.1312 28.125 77.3438 28.125Z" fill="#F6F6F6"/>
<path d="M102.656 2.8125C101.869 2.8125 101.25 2.19375 101.25 1.40625C101.25 0.618751 101.869 0 102.656 0C103.444 0 104.062 0.618751 104.062 1.40625C104.062 2.19375 103.444 2.8125 102.656 2.8125ZM99.8438 2.8125C99.0563 2.8125 98.4375 2.19375 98.4375 1.40625C98.4375 0.618751 99.0563 0 99.8438 0C100.631 0 101.25 0.618751 101.25 1.40625C101.25 2.19375 100.631 2.8125 99.8438 2.8125ZM105.469 2.8125C104.681 2.8125 104.062 2.19375 104.062 1.40625C104.062 0.618751 104.681 0 105.469 0C106.256 0 106.875 0.618751 106.875 1.40625C106.875 2.19375 106.256 2.8125 105.469 2.8125ZM108.281 2.8125C107.494 2.8125 106.875 2.19375 106.875 1.40625C106.875 0.618751 107.494 0 108.281 0C109.069 0 109.688 0.618751 109.688 1.40625C109.688 2.19375 109.069 2.8125 108.281 2.8125ZM97.0312 2.8125C96.2438 2.8125 95.625 2.19375 95.625 1.40625C95.625 0.618751 96.2438 0 97.0312 0C97.8187 0 98.4375 0.618751 98.4375 1.40625C98.4375 2.19375 97.8187 2.8125 97.0312 2.8125ZM102.656 5.625C101.869 5.625 101.25 5.00625 101.25 4.21875C101.25 3.43125 101.869 2.8125 102.656 2.8125C103.444 2.8125 104.062 3.43125 104.062 4.21875C104.062 5.00625 103.444 5.625 102.656 5.625ZM94.2188 5.625C93.4313 5.625 92.8125 5.00625 92.8125 4.21875C92.8125 3.43125 93.4313 2.8125 94.2188 2.8125C95.0062 2.8125 95.625 3.43125 95.625 4.21875C95.625 5.00625 95.0062 5.625 94.2188 5.625ZM99.8438 5.625C99.0563 5.625 98.4375 5.00625 98.4375 4.21875C98.4375 3.43125 99.0563 2.8125 99.8438 2.8125C100.631 2.8125 101.25 3.43125 101.25 4.21875C101.25 5.00625 100.631 5.625 99.8438 5.625ZM111.094 5.625C110.306 5.625 109.688 5.00625 109.688 4.21875C109.688 3.43125 110.306 2.8125 111.094 2.8125C111.881 2.8125 112.5 3.43125 112.5 4.21875C112.5 5.00625 111.881 5.625 111.094 5.625ZM108.281 5.625C107.494 5.625 106.875 5.00625 106.875 4.21875C106.875 3.43125 107.494 2.8125 108.281 2.8125C109.069 2.8125 109.688 3.43125 109.688 4.21875C109.688 5.00625 109.069 5.625 108.281 5.625ZM105.469 5.625C104.681 5.625 104.062 5.00625 104.062 4.21875C104.062 3.43125 104.681 2.8125 105.469 2.8125C106.256 2.8125 106.875 3.43125 106.875 4.21875C106.875 5.00625 106.256 5.625 105.469 5.625ZM97.0312 5.625C96.2438 5.625 95.625 5.00625 95.625 4.21875C95.625 3.43125 96.2438 2.8125 97.0312 2.8125C97.8187 2.8125 98.4375 3.43125 98.4375 4.21875C98.4375 5.00625 97.8187 5.625 97.0312 5.625ZM97.0312 8.4375C96.2438 8.4375 95.625 7.81875 95.625 7.03125C95.625 6.24375 96.2438 5.625 97.0312 5.625C97.8187 5.625 98.4375 6.24375 98.4375 7.03125C98.4375 7.81875 97.8187 8.4375 97.0312 8.4375ZM113.906 8.4375C113.119 8.4375 112.5 7.81875 112.5 7.03125C112.5 6.24375 113.119 5.625 113.906 5.625C114.694 5.625 115.312 6.24375 115.312 7.03125C115.312 7.81875 114.694 8.4375 113.906 8.4375ZM91.4062 8.4375C90.6187 8.4375 90 7.81875 90 7.03125C90 6.24375 90.6187 5.625 91.4062 5.625C92.1937 5.625 92.8125 6.24375 92.8125 7.03125C92.8125 7.81875 92.1937 8.4375 91.4062 8.4375ZM94.2188 8.4375C93.4313 8.4375 92.8125 7.81875 92.8125 7.03125C92.8125 6.24375 93.4313 5.625 94.2188 5.625C95.0062 5.625 95.625 6.24375 95.625 7.03125C95.625 7.81875 95.0062 8.4375 94.2188 8.4375ZM111.094 8.4375C110.306 8.4375 109.688 7.81875 109.688 7.03125C109.688 6.24375 110.306 5.625 111.094 5.625C111.881 5.625 112.5 6.24375 112.5 7.03125C112.5 7.81875 111.881 8.4375 111.094 8.4375ZM94.2188 11.25C93.4313 11.25 92.8125 10.6313 92.8125 9.84375C92.8125 9.05625 93.4313 8.4375 94.2188 8.4375C95.0062 8.4375 95.625 9.05625 95.625 9.84375C95.625 10.6313 95.0062 11.25 94.2188 11.25ZM91.4062 11.25C90.6187 11.25 90 10.6313 90 9.84375C90 9.05625 90.6187 8.4375 91.4062 8.4375C92.1937 8.4375 92.8125 9.05625 92.8125 9.84375C92.8125 10.6313 92.1937 11.25 91.4062 11.25ZM102.656 14.0625C101.869 14.0625 101.25 13.4438 101.25 12.6562C101.25 11.8688 101.869 11.25 102.656 11.25C103.444 11.25 104.062 11.8688 104.062 12.6562C104.062 13.4438 103.444 14.0625 102.656 14.0625ZM105.469 14.0625C104.681 14.0625 104.062 13.4438 104.062 12.6562C104.062 11.8688 104.681 11.25 105.469 11.25C106.256 11.25 106.875 11.8688 106.875 12.6562C106.875 13.4438 106.256 14.0625 105.469 14.0625ZM108.281 14.0625C107.494 14.0625 106.875 13.4438 106.875 12.6562C106.875 11.8688 107.494 11.25 108.281 11.25C109.069 11.25 109.688 11.8688 109.688 12.6562C109.688 13.4438 109.069 14.0625 108.281 14.0625ZM111.094 14.0625C110.306 14.0625 109.688 13.4438 109.688 12.6562C109.688 11.8688 110.306 11.25 111.094 11.25C111.881 11.25 112.5 11.8688 112.5 12.6562C112.5 13.4438 111.881 14.0625 111.094 14.0625ZM113.906 14.0625C113.119 14.0625 112.5 13.4438 112.5 12.6562C112.5 11.8688 113.119 11.25 113.906 11.25C114.694 11.25 115.312 11.8688 115.312 12.6562C115.312 13.4438 114.694 14.0625 113.906 14.0625ZM94.2188 14.0625C93.4313 14.0625 92.8125 13.4438 92.8125 12.6562C92.8125 11.8688 93.4313 11.25 94.2188 11.25C95.0062 11.25 95.625 11.8688 95.625 12.6562C95.625 13.4438 95.0062 14.0625 94.2188 14.0625ZM91.4062 14.0625C90.6187 14.0625 90 13.4438 90 12.6562C90 11.8688 90.6187 11.25 91.4062 11.25C92.1937 11.25 92.8125 11.8688 92.8125 12.6562C92.8125 13.4438 92.1937 14.0625 91.4062 14.0625ZM91.4062 16.875C90.6187 16.875 90 16.2563 90 15.4688C90 14.6813 90.6187 14.0625 91.4062 14.0625C92.1937 14.0625 92.8125 14.6813 92.8125 15.4688C92.8125 16.2563 92.1937 16.875 91.4062 16.875ZM94.2188 16.875C93.4313 16.875 92.8125 16.2563 92.8125 15.4688C92.8125 14.6813 93.4313 14.0625 94.2188 14.0625C95.0062 14.0625 95.625 14.6813 95.625 15.4688C95.625 16.2563 95.0062 16.875 94.2188 16.875ZM108.281 16.875C107.494 16.875 106.875 16.2563 106.875 15.4688C106.875 14.6813 107.494 14.0625 108.281 14.0625C109.069 14.0625 109.688 14.6813 109.688 15.4688C109.688 16.2563 109.069 16.875 108.281 16.875ZM111.094 16.875C110.306 16.875 109.688 16.2563 109.688 15.4688C109.688 14.6813 110.306 14.0625 111.094 14.0625C111.881 14.0625 112.5 14.6813 112.5 15.4688C112.5 16.2563 111.881 16.875 111.094 16.875ZM105.469 16.875C104.681 16.875 104.062 16.2563 104.062 15.4688C104.062 14.6813 104.681 14.0625 105.469 14.0625C106.256 14.0625 106.875 14.6813 106.875 15.4688C106.875 16.2563 106.256 16.875 105.469 16.875ZM113.906 16.875C113.119 16.875 112.5 16.2563 112.5 15.4688C112.5 14.6813 113.119 14.0625 113.906 14.0625C114.694 14.0625 115.312 14.6813 115.312 15.4688C115.312 16.2563 114.694 16.875 113.906 16.875ZM102.656 16.875C101.869 16.875 101.25 16.2563 101.25 15.4688C101.25 14.6813 101.869 14.0625 102.656 14.0625C103.444 14.0625 104.062 14.6813 104.062 15.4688C104.062 16.2563 103.444 16.875 102.656 16.875ZM94.2188 19.6875C93.4313 19.6875 92.8125 19.0687 92.8125 18.2812C92.8125 17.4938 93.4313 16.875 94.2188 16.875C95.0062 16.875 95.625 17.4938 95.625 18.2812C95.625 19.0687 95.0062 19.6875 94.2188 19.6875ZM113.906 19.6875C113.119 19.6875 112.5 19.0687 112.5 18.2812C112.5 17.4938 113.119 16.875 113.906 16.875C114.694 16.875 115.312 17.4938 115.312 18.2812C115.312 19.0687 114.694 19.6875 113.906 19.6875ZM111.094 19.6875C110.306 19.6875 109.688 19.0687 109.688 18.2812C109.688 17.4938 110.306 16.875 111.094 16.875C111.881 16.875 112.5 17.4938 112.5 18.2812C112.5 19.0687 111.881 19.6875 111.094 19.6875ZM91.4062 19.6875C90.6187 19.6875 90 19.0687 90 18.2812C90 17.4938 90.6187 16.875 91.4062 16.875C92.1937 16.875 92.8125 17.4938 92.8125 18.2812C92.8125 19.0687 92.1937 19.6875 91.4062 19.6875ZM97.0312 22.5C96.2438 22.5 95.625 21.8812 95.625 21.0938C95.625 20.3063 96.2438 19.6875 97.0312 19.6875C97.8187 19.6875 98.4375 20.3063 98.4375 21.0938C98.4375 21.8812 97.8187 22.5 97.0312 22.5ZM113.906 22.5C113.119 22.5 112.5 21.8812 112.5 21.0938C112.5 20.3063 113.119 19.6875 113.906 19.6875C114.694 19.6875 115.312 20.3063 115.312 21.0938C115.312 21.8812 114.694 22.5 113.906 22.5ZM91.4062 22.5C90.6187 22.5 90 21.8812 90 21.0938C90 20.3063 90.6187 19.6875 91.4062 19.6875C92.1937 19.6875 92.8125 20.3063 92.8125 21.0938C92.8125 21.8812 92.1937 22.5 91.4062 22.5ZM111.094 22.5C110.306 22.5 109.688 21.8812 109.688 21.0938C109.688 20.3063 110.306 19.6875 111.094 19.6875C111.881 19.6875 112.5 20.3063 112.5 21.0938C112.5 21.8812 111.881 22.5 111.094 22.5ZM94.2188 22.5C93.4313 22.5 92.8125 21.8812 92.8125 21.0938C92.8125 20.3063 93.4313 19.6875 94.2188 19.6875C95.0062 19.6875 95.625 20.3063 95.625 21.0938C95.625 21.8812 95.0062 22.5 94.2188 22.5ZM108.281 22.5C107.494 22.5 106.875 21.8812 106.875 21.0938C106.875 20.3063 107.494 19.6875 108.281 19.6875C109.069 19.6875 109.688 20.3063 109.688 21.0938C109.688 21.8812 109.069 22.5 108.281 22.5ZM97.0312 25.3125C96.2438 25.3125 95.625 24.6937 95.625 23.9062C95.625 23.1188 96.2438 22.5 97.0312 22.5C97.8187 22.5 98.4375 23.1188 98.4375 23.9062C98.4375 24.6937 97.8187 25.3125 97.0312 25.3125ZM105.469 25.3125C104.681 25.3125 104.062 24.6937 104.062 23.9062C104.062 23.1188 104.681 22.5 105.469 22.5C106.256 22.5 106.875 23.1188 106.875 23.9062C106.875 24.6937 106.256 25.3125 105.469 25.3125ZM108.281 25.3125C107.494 25.3125 106.875 24.6937 106.875 23.9062C106.875 23.1188 107.494 22.5 108.281 22.5C109.069 22.5 109.688 23.1188 109.688 23.9062C109.688 24.6937 109.069 25.3125 108.281 25.3125ZM113.906 25.3125C113.119 25.3125 112.5 24.6937 112.5 23.9062C112.5 23.1188 113.119 22.5 113.906 22.5C114.694 22.5 115.312 23.1188 115.312 23.9062C115.312 24.6937 114.694 25.3125 113.906 25.3125ZM99.8438 25.3125C99.0563 25.3125 98.4375 24.6937 98.4375 23.9062C98.4375 23.1188 99.0563 22.5 99.8438 22.5C100.631 22.5 101.25 23.1188 101.25 23.9062C101.25 24.6937 100.631 25.3125 99.8438 25.3125ZM111.094 25.3125C110.306 25.3125 109.688 24.6937 109.688 23.9062C109.688 23.1188 110.306 22.5 111.094 22.5C111.881 22.5 112.5 23.1188 112.5 23.9062C112.5 24.6937 111.881 25.3125 111.094 25.3125ZM102.656 25.3125C101.869 25.3125 101.25 24.6937 101.25 23.9062C101.25 23.1188 101.869 22.5 102.656 22.5C103.444 22.5 104.062 23.1188 104.062 23.9062C104.062 24.6937 103.444 25.3125 102.656 25.3125ZM94.2188 25.3125C93.4313 25.3125 92.8125 24.6937 92.8125 23.9062C92.8125 23.1188 93.4313 22.5 94.2188 22.5C95.0062 22.5 95.625 23.1188 95.625 23.9062C95.625 24.6937 95.0062 25.3125 94.2188 25.3125ZM113.906 28.125C113.119 28.125 112.5 27.5063 112.5 26.7188C112.5 25.9313 113.119 25.3125 113.906 25.3125C114.694 25.3125 115.312 25.9313 115.312 26.7188C115.312 27.5063 114.694 28.125 113.906 28.125ZM97.0312 28.125C96.2438 28.125 95.625 27.5063 95.625 26.7188C95.625 25.9313 96.2438 25.3125 97.0312 25.3125C97.8187 25.3125 98.4375 25.9313 98.4375 26.7188C98.4375 27.5063 97.8187 28.125 97.0312 28.125ZM99.8438 28.125C99.0563 28.125 98.4375 27.5063 98.4375 26.7188C98.4375 25.9313 99.0563 25.3125 99.8438 25.3125C100.631 25.3125 101.25 25.9313 101.25 26.7188C101.25 27.5063 100.631 28.125 99.8438 28.125ZM105.469 28.125C104.681 28.125 104.062 27.5063 104.062 26.7188C104.062 25.9313 104.681 25.3125 105.469 25.3125C106.256 25.3125 106.875 25.9313 106.875 26.7188C106.875 27.5063 106.256 28.125 105.469 28.125ZM108.281 28.125C107.494 28.125 106.875 27.5063 106.875 26.7188C106.875 25.9313 107.494 25.3125 108.281 25.3125C109.069 25.3125 109.688 25.9313 109.688 26.7188C109.688 27.5063 109.069 28.125 108.281 28.125ZM102.656 28.125C101.869 28.125 101.25 27.5063 101.25 26.7188C101.25 25.9313 101.869 25.3125 102.656 25.3125C103.444 25.3125 104.062 25.9313 104.062 26.7188C104.062 27.5063 103.444 28.125 102.656 28.125Z" fill="#F6F6F6"/>
<path d="M130.781 2.8125C129.994 2.8125 129.375 2.19375 129.375 1.40625C129.375 0.618751 129.994 0 130.781 0C131.569 0 132.188 0.618751 132.188 1.40625C132.188 2.19375 131.569 2.8125 130.781 2.8125ZM127.969 2.8125C127.181 2.8125 126.562 2.19375 126.562 1.40625C126.562 0.618751 127.181 0 127.969 0C128.756 0 129.375 0.618751 129.375 1.40625C129.375 2.19375 128.756 2.8125 127.969 2.8125ZM125.156 2.8125C124.369 2.8125 123.75 2.19375 123.75 1.40625C123.75 0.618751 124.369 0 125.156 0C125.944 0 126.562 0.618751 126.562 1.40625C126.562 2.19375 125.944 2.8125 125.156 2.8125ZM122.344 2.8125C121.556 2.8125 120.938 2.19375 120.938 1.40625C120.938 0.618751 121.556 0 122.344 0C123.131 0 123.75 0.618751 123.75 1.40625C123.75 2.19375 123.131 2.8125 122.344 2.8125ZM119.531 2.8125C118.744 2.8125 118.125 2.19375 118.125 1.40625C118.125 0.618751 118.744 0 119.531 0C120.319 0 120.938 0.618751 120.938 1.40625C120.938 2.19375 120.319 2.8125 119.531 2.8125ZM133.594 5.625C132.806 5.625 132.188 5.00625 132.188 4.21875C132.188 3.43125 132.806 2.8125 133.594 2.8125C134.381 2.8125 135 3.43125 135 4.21875C135 5.00625 134.381 5.625 133.594 5.625ZM122.344 5.625C121.556 5.625 120.938 5.00625 120.938 4.21875C120.938 3.43125 121.556 2.8125 122.344 2.8125C123.131 2.8125 123.75 3.43125 123.75 4.21875C123.75 5.00625 123.131 5.625 122.344 5.625ZM119.531 5.625C118.744 5.625 118.125 5.00625 118.125 4.21875C118.125 3.43125 118.744 2.8125 119.531 2.8125C120.319 2.8125 120.938 3.43125 120.938 4.21875C120.938 5.00625 120.319 5.625 119.531 5.625ZM125.156 5.625C124.369 5.625 123.75 5.00625 123.75 4.21875C123.75 3.43125 124.369 2.8125 125.156 2.8125C125.944 2.8125 126.562 3.43125 126.562 4.21875C126.562 5.00625 125.944 5.625 125.156 5.625ZM130.781 5.625C129.994 5.625 129.375 5.00625 129.375 4.21875C129.375 3.43125 129.994 2.8125 130.781 2.8125C131.569 2.8125 132.188 3.43125 132.188 4.21875C132.188 5.00625 131.569 5.625 130.781 5.625ZM127.969 5.625C127.181 5.625 126.562 5.00625 126.562 4.21875C126.562 3.43125 127.181 2.8125 127.969 2.8125C128.756 2.8125 129.375 3.43125 129.375 4.21875C129.375 5.00625 128.756 5.625 127.969 5.625ZM122.344 8.4375C121.556 8.4375 120.938 7.81875 120.938 7.03125C120.938 6.24375 121.556 5.625 122.344 5.625C123.131 5.625 123.75 6.24375 123.75 7.03125C123.75 7.81875 123.131 8.4375 122.344 8.4375ZM119.531 8.4375C118.744 8.4375 118.125 7.81875 118.125 7.03125C118.125 6.24375 118.744 5.625 119.531 5.625C120.319 5.625 120.938 6.24375 120.938 7.03125C120.938 7.81875 120.319 8.4375 119.531 8.4375ZM133.594 8.4375C132.806 8.4375 132.188 7.81875 132.188 7.03125C132.188 6.24375 132.806 5.625 133.594 5.625C134.381 5.625 135 6.24375 135 7.03125C135 7.81875 134.381 8.4375 133.594 8.4375ZM136.406 8.4375C135.619 8.4375 135 7.81875 135 7.03125C135 6.24375 135.619 5.625 136.406 5.625C137.194 5.625 137.812 6.24375 137.812 7.03125C137.812 7.81875 137.194 8.4375 136.406 8.4375ZM119.531 11.25C118.744 11.25 118.125 10.6313 118.125 9.84375C118.125 9.05625 118.744 8.4375 119.531 8.4375C120.319 8.4375 120.938 9.05625 120.938 9.84375C120.938 10.6313 120.319 11.25 119.531 11.25ZM122.344 11.25C121.556 11.25 120.938 10.6313 120.938 9.84375C120.938 9.05625 121.556 8.4375 122.344 8.4375C123.131 8.4375 123.75 9.05625 123.75 9.84375C123.75 10.6313 123.131 11.25 122.344 11.25ZM133.594 11.25C132.806 11.25 132.188 10.6313 132.188 9.84375C132.188 9.05625 132.806 8.4375 133.594 8.4375C134.381 8.4375 135 9.05625 135 9.84375C135 10.6313 134.381 11.25 133.594 11.25ZM136.406 11.25C135.619 11.25 135 10.6313 135 9.84375C135 9.05625 135.619 8.4375 136.406 8.4375C137.194 8.4375 137.812 9.05625 137.812 9.84375C137.812 10.6313 137.194 11.25 136.406 11.25ZM122.344 14.0625C121.556 14.0625 120.938 13.4438 120.938 12.6562C120.938 11.8688 121.556 11.25 122.344 11.25C123.131 11.25 123.75 11.8688 123.75 12.6562C123.75 13.4438 123.131 14.0625 122.344 14.0625ZM119.531 14.0625C118.744 14.0625 118.125 13.4438 118.125 12.6562C118.125 11.8688 118.744 11.25 119.531 11.25C120.319 11.25 120.938 11.8688 120.938 12.6562C120.938 13.4438 120.319 14.0625 119.531 14.0625ZM133.594 14.0625C132.806 14.0625 132.188 13.4438 132.188 12.6562C132.188 11.8688 132.806 11.25 133.594 11.25C134.381 11.25 135 11.8688 135 12.6562C135 13.4438 134.381 14.0625 133.594 14.0625ZM136.406 14.0625C135.619 14.0625 135 13.4438 135 12.6562C135 11.8688 135.619 11.25 136.406 11.25C137.194 11.25 137.812 11.8688 137.812 12.6562C137.812 13.4438 137.194 14.0625 136.406 14.0625ZM122.344 16.875C121.556 16.875 120.938 16.2563 120.938 15.4688C120.938 14.6813 121.556 14.0625 122.344 14.0625C123.131 14.0625 123.75 14.6813 123.75 15.4688C123.75 16.2563 123.131 16.875 122.344 16.875ZM119.531 16.875C118.744 16.875 118.125 16.2563 118.125 15.4688C118.125 14.6813 118.744 14.0625 119.531 14.0625C120.319 14.0625 120.938 14.6813 120.938 15.4688C120.938 16.2563 120.319 16.875 119.531 16.875ZM125.156 16.875C124.369 16.875 123.75 16.2563 123.75 15.4688C123.75 14.6813 124.369 14.0625 125.156 14.0625C125.944 14.0625 126.562 14.6813 126.562 15.4688C126.562 16.2563 125.944 16.875 125.156 16.875ZM127.969 16.875C127.181 16.875 126.562 16.2563 126.562 15.4688C126.562 14.6813 127.181 14.0625 127.969 14.0625C128.756 14.0625 129.375 14.6813 129.375 15.4688C129.375 16.2563 128.756 16.875 127.969 16.875ZM133.594 16.875C132.806 16.875 132.188 16.2563 132.188 15.4688C132.188 14.6813 132.806 14.0625 133.594 14.0625C134.381 14.0625 135 14.6813 135 15.4688C135 16.2563 134.381 16.875 133.594 16.875ZM130.781 16.875C129.994 16.875 129.375 16.2563 129.375 15.4688C129.375 14.6813 129.994 14.0625 130.781 14.0625C131.569 14.0625 132.188 14.6813 132.188 15.4688C132.188 16.2563 131.569 16.875 130.781 16.875ZM125.156 19.6875C124.369 19.6875 123.75 19.0687 123.75 18.2812C123.75 17.4938 124.369 16.875 125.156 16.875C125.944 16.875 126.562 17.4938 126.562 18.2812C126.562 19.0687 125.944 19.6875 125.156 19.6875ZM127.969 19.6875C127.181 19.6875 126.562 19.0687 126.562 18.2812C126.562 17.4938 127.181 16.875 127.969 16.875C128.756 16.875 129.375 17.4938 129.375 18.2812C129.375 19.0687 128.756 19.6875 127.969 19.6875ZM130.781 19.6875C129.994 19.6875 129.375 19.0687 129.375 18.2812C129.375 17.4938 129.994 16.875 130.781 16.875C131.569 16.875 132.188 17.4938 132.188 18.2812C132.188 19.0687 131.569 19.6875 130.781 19.6875ZM122.344 19.6875C121.556 19.6875 120.938 19.0687 120.938 18.2812C120.938 17.4938 121.556 16.875 122.344 16.875C123.131 16.875 123.75 17.4938 123.75 18.2812C123.75 19.0687 123.131 19.6875 122.344 19.6875ZM119.531 19.6875C118.744 19.6875 118.125 19.0687 118.125 18.2812C118.125 17.4938 118.744 16.875 119.531 16.875C120.319 16.875 120.938 17.4938 120.938 18.2812C120.938 19.0687 120.319 19.6875 119.531 19.6875ZM127.969 22.5C127.181 22.5 126.562 21.8812 126.562 21.0938C126.562 20.3063 127.181 19.6875 127.969 19.6875C128.756 19.6875 129.375 20.3063 129.375 21.0938C129.375 21.8812 128.756 22.5 127.969 22.5ZM130.781 22.5C129.994 22.5 129.375 21.8812 129.375 21.0938C129.375 20.3063 129.994 19.6875 130.781 19.6875C131.569 19.6875 132.188 20.3063 132.188 21.0938C132.188 21.8812 131.569 22.5 130.781 22.5ZM133.594 22.5C132.806 22.5 132.188 21.8812 132.188 21.0938C132.188 20.3063 132.806 19.6875 133.594 19.6875C134.381 19.6875 135 20.3063 135 21.0938C135 21.8812 134.381 22.5 133.594 22.5ZM119.531 22.5C118.744 22.5 118.125 21.8812 118.125 21.0938C118.125 20.3063 118.744 19.6875 119.531 19.6875C120.319 19.6875 120.938 20.3063 120.938 21.0938C120.938 21.8812 120.319 22.5 119.531 22.5ZM122.344 22.5C121.556 22.5 120.938 21.8812 120.938 21.0938C120.938 20.3063 121.556 19.6875 122.344 19.6875C123.131 19.6875 123.75 20.3063 123.75 21.0938C123.75 21.8812 123.131 22.5 122.344 22.5ZM130.781 25.3125C129.994 25.3125 129.375 24.6937 129.375 23.9062C129.375 23.1188 129.994 22.5 130.781 22.5C131.569 22.5 132.188 23.1188 132.188 23.9062C132.188 24.6937 131.569 25.3125 130.781 25.3125ZM133.594 25.3125C132.806 25.3125 132.188 24.6937 132.188 23.9062C132.188 23.1188 132.806 22.5 133.594 22.5C134.381 22.5 135 23.1188 135 23.9062C135 24.6937 134.381 25.3125 133.594 25.3125ZM136.406 25.3125C135.619 25.3125 135 24.6937 135 23.9062C135 23.1188 135.619 22.5 136.406 22.5C137.194 22.5 137.812 23.1188 137.812 23.9062C137.812 24.6937 137.194 25.3125 136.406 25.3125ZM119.531 25.3125C118.744 25.3125 118.125 24.6937 118.125 23.9062C118.125 23.1188 118.744 22.5 119.531 22.5C120.319 22.5 120.938 23.1188 120.938 23.9062C120.938 24.6937 120.319 25.3125 119.531 25.3125ZM122.344 25.3125C121.556 25.3125 120.938 24.6937 120.938 23.9062C120.938 23.1188 121.556 22.5 122.344 22.5C123.131 22.5 123.75 23.1188 123.75 23.9062C123.75 24.6937 123.131 25.3125 122.344 25.3125ZM133.594 28.125C132.806 28.125 132.188 27.5063 132.188 26.7188C132.188 25.9313 132.806 25.3125 133.594 25.3125C134.381 25.3125 135 25.9313 135 26.7188C135 27.5063 134.381 28.125 133.594 28.125ZM136.406 28.125C135.619 28.125 135 27.5063 135 26.7188C135 25.9313 135.619 25.3125 136.406 25.3125C137.194 25.3125 137.812 25.9313 137.812 26.7188C137.812 27.5063 137.194 28.125 136.406 28.125ZM119.531 28.125C118.744 28.125 118.125 27.5063 118.125 26.7188C118.125 25.9313 118.744 25.3125 119.531 25.3125C120.319 25.3125 120.938 25.9313 120.938 26.7188C120.938 27.5063 120.319 28.125 119.531 28.125ZM122.344 28.125C121.556 28.125 120.938 27.5063 120.938 26.7188C120.938 25.9313 121.556 25.3125 122.344 25.3125C123.131 25.3125 123.75 25.9313 123.75 26.7188C123.75 27.5063 123.131 28.125 122.344 28.125ZM139.219 28.125C138.431 28.125 137.812 27.5063 137.812 26.7188C137.812 25.9313 138.431 25.3125 139.219 25.3125C140.006 25.3125 140.625 25.9313 140.625 26.7188C140.625 27.5063 140.006 28.125 139.219 28.125Z" fill="#F6F6F6"/>
<path d="M150.469 2.8125C149.681 2.8125 149.062 2.19375 149.062 1.40625C149.062 0.618751 149.681 0 150.469 0C151.256 0 151.875 0.618751 151.875 1.40625C151.875 2.19375 151.256 2.8125 150.469 2.8125ZM156.094 2.8125C155.306 2.8125 154.688 2.19375 154.688 1.40625C154.688 0.618751 155.306 0 156.094 0C156.881 0 157.5 0.618751 157.5 1.40625C157.5 2.19375 156.881 2.8125 156.094 2.8125ZM153.281 2.8125C152.494 2.8125 151.875 2.19375 151.875 1.40625C151.875 0.618751 152.494 0 153.281 0C154.069 0 154.688 0.618751 154.688 1.40625C154.688 2.19375 154.069 2.8125 153.281 2.8125ZM158.906 2.8125C158.119 2.8125 157.5 2.19375 157.5 1.40625C157.5 0.618751 158.119 0 158.906 0C159.694 0 160.312 0.618751 160.312 1.40625C160.312 2.19375 159.694 2.8125 158.906 2.8125ZM147.656 2.8125C146.869 2.8125 146.25 2.19375 146.25 1.40625C146.25 0.618751 146.869 0 147.656 0C148.444 0 149.062 0.618751 149.062 1.40625C149.062 2.19375 148.444 2.8125 147.656 2.8125ZM150.469 5.625C149.681 5.625 149.062 5.00625 149.062 4.21875C149.062 3.43125 149.681 2.8125 150.469 2.8125C151.256 2.8125 151.875 3.43125 151.875 4.21875C151.875 5.00625 151.256 5.625 150.469 5.625ZM144.844 5.625C144.056 5.625 143.438 5.00625 143.438 4.21875C143.438 3.43125 144.056 2.8125 144.844 2.8125C145.631 2.8125 146.25 3.43125 146.25 4.21875C146.25 5.00625 145.631 5.625 144.844 5.625ZM153.281 5.625C152.494 5.625 151.875 5.00625 151.875 4.21875C151.875 3.43125 152.494 2.8125 153.281 2.8125C154.069 2.8125 154.688 3.43125 154.688 4.21875C154.688 5.00625 154.069 5.625 153.281 5.625ZM158.906 5.625C158.119 5.625 157.5 5.00625 157.5 4.21875C157.5 3.43125 158.119 2.8125 158.906 2.8125C159.694 2.8125 160.312 3.43125 160.312 4.21875C160.312 5.00625 159.694 5.625 158.906 5.625ZM156.094 5.625C155.306 5.625 154.688 5.00625 154.688 4.21875C154.688 3.43125 155.306 2.8125 156.094 2.8125C156.881 2.8125 157.5 3.43125 157.5 4.21875C157.5 5.00625 156.881 5.625 156.094 5.625ZM147.656 5.625C146.869 5.625 146.25 5.00625 146.25 4.21875C146.25 3.43125 146.869 2.8125 147.656 2.8125C148.444 2.8125 149.062 3.43125 149.062 4.21875C149.062 5.00625 148.444 5.625 147.656 5.625ZM161.719 5.625C160.931 5.625 160.312 5.00625 160.312 4.21875C160.312 3.43125 160.931 2.8125 161.719 2.8125C162.506 2.8125 163.125 3.43125 163.125 4.21875C163.125 5.00625 162.506 5.625 161.719 5.625ZM147.656 8.4375C146.869 8.4375 146.25 7.81875 146.25 7.03125C146.25 6.24375 146.869 5.625 147.656 5.625C148.444 5.625 149.062 6.24375 149.062 7.03125C149.062 7.81875 148.444 8.4375 147.656 8.4375ZM158.906 8.4375C158.119 8.4375 157.5 7.81875 157.5 7.03125C157.5 6.24375 158.119 5.625 158.906 5.625C159.694 5.625 160.312 6.24375 160.312 7.03125C160.312 7.81875 159.694 8.4375 158.906 8.4375ZM144.844 8.4375C144.056 8.4375 143.438 7.81875 143.438 7.03125C143.438 6.24375 144.056 5.625 144.844 5.625C145.631 5.625 146.25 6.24375 146.25 7.03125C146.25 7.81875 145.631 8.4375 144.844 8.4375ZM161.719 8.4375C160.931 8.4375 160.312 7.81875 160.312 7.03125C160.312 6.24375 160.931 5.625 161.719 5.625C162.506 5.625 163.125 6.24375 163.125 7.03125C163.125 7.81875 162.506 8.4375 161.719 8.4375ZM164.531 8.4375C163.744 8.4375 163.125 7.81875 163.125 7.03125C163.125 6.24375 163.744 5.625 164.531 5.625C165.319 5.625 165.938 6.24375 165.938 7.03125C165.938 7.81875 165.319 8.4375 164.531 8.4375ZM142.031 8.4375C141.244 8.4375 140.625 7.81875 140.625 7.03125C140.625 6.24375 141.244 5.625 142.031 5.625C142.819 5.625 143.438 6.24375 143.438 7.03125C143.438 7.81875 142.819 8.4375 142.031 8.4375ZM144.844 11.25C144.056 11.25 143.438 10.6313 143.438 9.84375C143.438 9.05625 144.056 8.4375 144.844 8.4375C145.631 8.4375 146.25 9.05625 146.25 9.84375C146.25 10.6313 145.631 11.25 144.844 11.25ZM142.031 11.25C141.244 11.25 140.625 10.6313 140.625 9.84375C140.625 9.05625 141.244 8.4375 142.031 8.4375C142.819 8.4375 143.438 9.05625 143.438 9.84375C143.438 10.6313 142.819 11.25 142.031 11.25ZM161.719 11.25C160.931 11.25 160.312 10.6313 160.312 9.84375C160.312 9.05625 160.931 8.4375 161.719 8.4375C162.506 8.4375 163.125 9.05625 163.125 9.84375C163.125 10.6313 162.506 11.25 161.719 11.25ZM164.531 11.25C163.744 11.25 163.125 10.6313 163.125 9.84375C163.125 9.05625 163.744 8.4375 164.531 8.4375C165.319 8.4375 165.938 9.05625 165.938 9.84375C165.938 10.6313 165.319 11.25 164.531 11.25ZM142.031 14.0625C141.244 14.0625 140.625 13.4438 140.625 12.6562C140.625 11.8688 141.244 11.25 142.031 11.25C142.819 11.25 143.438 11.8688 143.438 12.6562C143.438 13.4438 142.819 14.0625 142.031 14.0625ZM144.844 14.0625C144.056 14.0625 143.438 13.4438 143.438 12.6562C143.438 11.8688 144.056 11.25 144.844 11.25C145.631 11.25 146.25 11.8688 146.25 12.6562C146.25 13.4438 145.631 14.0625 144.844 14.0625ZM164.531 14.0625C163.744 14.0625 163.125 13.4438 163.125 12.6562C163.125 11.8688 163.744 11.25 164.531 11.25C165.319 11.25 165.938 11.8688 165.938 12.6562C165.938 13.4438 165.319 14.0625 164.531 14.0625ZM161.719 14.0625C160.931 14.0625 160.312 13.4438 160.312 12.6562C160.312 11.8688 160.931 11.25 161.719 11.25C162.506 11.25 163.125 11.8688 163.125 12.6562C163.125 13.4438 162.506 14.0625 161.719 14.0625ZM161.719 16.875C160.931 16.875 160.312 16.2563 160.312 15.4688C160.312 14.6813 160.931 14.0625 161.719 14.0625C162.506 14.0625 163.125 14.6813 163.125 15.4688C163.125 16.2563 162.506 16.875 161.719 16.875ZM142.031 16.875C141.244 16.875 140.625 16.2563 140.625 15.4688C140.625 14.6813 141.244 14.0625 142.031 14.0625C142.819 14.0625 143.438 14.6813 143.438 15.4688C143.438 16.2563 142.819 16.875 142.031 16.875ZM164.531 16.875C163.744 16.875 163.125 16.2563 163.125 15.4688C163.125 14.6813 163.744 14.0625 164.531 14.0625C165.319 14.0625 165.938 14.6813 165.938 15.4688C165.938 16.2563 165.319 16.875 164.531 16.875ZM144.844 16.875C144.056 16.875 143.438 16.2563 143.438 15.4688C143.438 14.6813 144.056 14.0625 144.844 14.0625C145.631 14.0625 146.25 14.6813 146.25 15.4688C146.25 16.2563 145.631 16.875 144.844 16.875ZM161.719 19.6875C160.931 19.6875 160.312 19.0687 160.312 18.2812C160.312 17.4938 160.931 16.875 161.719 16.875C162.506 16.875 163.125 17.4938 163.125 18.2812C163.125 19.0687 162.506 19.6875 161.719 19.6875ZM144.844 19.6875C144.056 19.6875 143.438 19.0687 143.438 18.2812C143.438 17.4938 144.056 16.875 144.844 16.875C145.631 16.875 146.25 17.4938 146.25 18.2812C146.25 19.0687 145.631 19.6875 144.844 19.6875ZM142.031 19.6875C141.244 19.6875 140.625 19.0687 140.625 18.2812C140.625 17.4938 141.244 16.875 142.031 16.875C142.819 16.875 143.438 17.4938 143.438 18.2812C143.438 19.0687 142.819 19.6875 142.031 19.6875ZM164.531 19.6875C163.744 19.6875 163.125 19.0687 163.125 18.2812C163.125 17.4938 163.744 16.875 164.531 16.875C165.319 16.875 165.938 17.4938 165.938 18.2812C165.938 19.0687 165.319 19.6875 164.531 19.6875ZM147.656 22.5C146.869 22.5 146.25 21.8812 146.25 21.0938C146.25 20.3063 146.869 19.6875 147.656 19.6875C148.444 19.6875 149.062 20.3063 149.062 21.0938C149.062 21.8812 148.444 22.5 147.656 22.5ZM158.906 22.5C158.119 22.5 157.5 21.8812 157.5 21.0938C157.5 20.3063 158.119 19.6875 158.906 19.6875C159.694 19.6875 160.312 20.3063 160.312 21.0938C160.312 21.8812 159.694 22.5 158.906 22.5ZM161.719 22.5C160.931 22.5 160.312 21.8812 160.312 21.0938C160.312 20.3063 160.931 19.6875 161.719 19.6875C162.506 19.6875 163.125 20.3063 163.125 21.0938C163.125 21.8812 162.506 22.5 161.719 22.5ZM164.531 22.5C163.744 22.5 163.125 21.8812 163.125 21.0938C163.125 20.3063 163.744 19.6875 164.531 19.6875C165.319 19.6875 165.938 20.3063 165.938 21.0938C165.938 21.8812 165.319 22.5 164.531 22.5ZM142.031 22.5C141.244 22.5 140.625 21.8812 140.625 21.0938C140.625 20.3063 141.244 19.6875 142.031 19.6875C142.819 19.6875 143.438 20.3063 143.438 21.0938C143.438 21.8812 142.819 22.5 142.031 22.5ZM144.844 22.5C144.056 22.5 143.438 21.8812 143.438 21.0938C143.438 20.3063 144.056 19.6875 144.844 19.6875C145.631 19.6875 146.25 20.3063 146.25 21.0938C146.25 21.8812 145.631 22.5 144.844 22.5ZM144.844 25.3125C144.056 25.3125 143.438 24.6937 143.438 23.9062C143.438 23.1188 144.056 22.5 144.844 22.5C145.631 22.5 146.25 23.1188 146.25 23.9062C146.25 24.6937 145.631 25.3125 144.844 25.3125ZM161.719 25.3125C160.931 25.3125 160.312 24.6937 160.312 23.9062C160.312 23.1188 160.931 22.5 161.719 22.5C162.506 22.5 163.125 23.1188 163.125 23.9062C163.125 24.6937 162.506 25.3125 161.719 25.3125ZM158.906 25.3125C158.119 25.3125 157.5 24.6937 157.5 23.9062C157.5 23.1188 158.119 22.5 158.906 22.5C159.694 22.5 160.312 23.1188 160.312 23.9062C160.312 24.6937 159.694 25.3125 158.906 25.3125ZM156.094 25.3125C155.306 25.3125 154.688 24.6937 154.688 23.9062C154.688 23.1188 155.306 22.5 156.094 22.5C156.881 22.5 157.5 23.1188 157.5 23.9062C157.5 24.6937 156.881 25.3125 156.094 25.3125ZM150.469 25.3125C149.681 25.3125 149.062 24.6937 149.062 23.9062C149.062 23.1188 149.681 22.5 150.469 22.5C151.256 22.5 151.875 23.1188 151.875 23.9062C151.875 24.6937 151.256 25.3125 150.469 25.3125ZM147.656 25.3125C146.869 25.3125 146.25 24.6937 146.25 23.9062C146.25 23.1188 146.869 22.5 147.656 22.5C148.444 22.5 149.062 23.1188 149.062 23.9062C149.062 24.6937 148.444 25.3125 147.656 25.3125ZM153.281 25.3125C152.494 25.3125 151.875 24.6937 151.875 23.9062C151.875 23.1188 152.494 22.5 153.281 22.5C154.069 22.5 154.688 23.1188 154.688 23.9062C154.688 24.6937 154.069 25.3125 153.281 25.3125ZM158.906 28.125C158.119 28.125 157.5 27.5063 157.5 26.7188C157.5 25.9313 158.119 25.3125 158.906 25.3125C159.694 25.3125 160.312 25.9313 160.312 26.7188C160.312 27.5063 159.694 28.125 158.906 28.125ZM156.094 28.125C155.306 28.125 154.688 27.5063 154.688 26.7188C154.688 25.9313 155.306 25.3125 156.094 25.3125C156.881 25.3125 157.5 25.9313 157.5 26.7188C157.5 27.5063 156.881 28.125 156.094 28.125ZM150.469 28.125C149.681 28.125 149.062 27.5063 149.062 26.7188C149.062 25.9313 149.681 25.3125 150.469 25.3125C151.256 25.3125 151.875 25.9313 151.875 26.7188C151.875 27.5063 151.256 28.125 150.469 28.125ZM147.656 28.125C146.869 28.125 146.25 27.5063 146.25 26.7188C146.25 25.9313 146.869 25.3125 147.656 25.3125C148.444 25.3125 149.062 25.9313 149.062 26.7188C149.062 27.5063 148.444 28.125 147.656 28.125ZM153.281 28.125C152.494 28.125 151.875 27.5063 151.875 26.7188C151.875 25.9313 152.494 25.3125 153.281 25.3125C154.069 25.3125 154.688 25.9313 154.688 26.7188C154.688 27.5063 154.069 28.125 153.281 28.125Z" fill="#F6F6F6"/>
<path d="M189.844 2.8125C189.056 2.8125 188.438 2.19375 188.438 1.40625C188.438 0.618751 189.056 0 189.844 0C190.631 0 191.25 0.618751 191.25 1.40625C191.25 2.19375 190.631 2.8125 189.844 2.8125ZM187.031 2.8125C186.244 2.8125 185.625 2.19375 185.625 1.40625C185.625 0.618751 186.244 0 187.031 0C187.819 0 188.438 0.618751 188.438 1.40625C188.438 2.19375 187.819 2.8125 187.031 2.8125ZM172.969 2.8125C172.181 2.8125 171.562 2.19375 171.562 1.40625C171.562 0.618751 172.181 0 172.969 0C173.756 0 174.375 0.618751 174.375 1.40625C174.375 2.19375 173.756 2.8125 172.969 2.8125ZM170.156 2.8125C169.369 2.8125 168.75 2.19375 168.75 1.40625C168.75 0.618751 169.369 0 170.156 0C170.944 0 171.562 0.618751 171.562 1.40625C171.562 2.19375 170.944 2.8125 170.156 2.8125ZM187.031 5.625C186.244 5.625 185.625 5.00625 185.625 4.21875C185.625 3.43125 186.244 2.8125 187.031 2.8125C187.819 2.8125 188.438 3.43125 188.438 4.21875C188.438 5.00625 187.819 5.625 187.031 5.625ZM172.969 5.625C172.181 5.625 171.562 5.00625 171.562 4.21875C171.562 3.43125 172.181 2.8125 172.969 2.8125C173.756 2.8125 174.375 3.43125 174.375 4.21875C174.375 5.00625 173.756 5.625 172.969 5.625ZM170.156 5.625C169.369 5.625 168.75 5.00625 168.75 4.21875C168.75 3.43125 169.369 2.8125 170.156 2.8125C170.944 2.8125 171.562 3.43125 171.562 4.21875C171.562 5.00625 170.944 5.625 170.156 5.625ZM189.844 5.625C189.056 5.625 188.438 5.00625 188.438 4.21875C188.438 3.43125 189.056 2.8125 189.844 2.8125C190.631 2.8125 191.25 3.43125 191.25 4.21875C191.25 5.00625 190.631 5.625 189.844 5.625ZM189.844 8.4375C189.056 8.4375 188.438 7.81875 188.438 7.03125C188.438 6.24375 189.056 5.625 189.844 5.625C190.631 5.625 191.25 6.24375 191.25 7.03125C191.25 7.81875 190.631 8.4375 189.844 8.4375ZM172.969 8.4375C172.181 8.4375 171.562 7.81875 171.562 7.03125C171.562 6.24375 172.181 5.625 172.969 5.625C173.756 5.625 174.375 6.24375 174.375 7.03125C174.375 7.81875 173.756 8.4375 172.969 8.4375ZM170.156 8.4375C169.369 8.4375 168.75 7.81875 168.75 7.03125C168.75 6.24375 169.369 5.625 170.156 5.625C170.944 5.625 171.562 6.24375 171.562 7.03125C171.562 7.81875 170.944 8.4375 170.156 8.4375ZM187.031 8.4375C186.244 8.4375 185.625 7.81875 185.625 7.03125C185.625 6.24375 186.244 5.625 187.031 5.625C187.819 5.625 188.438 6.24375 188.438 7.03125C188.438 7.81875 187.819 8.4375 187.031 8.4375ZM172.969 11.25C172.181 11.25 171.562 10.6313 171.562 9.84375C171.562 9.05625 172.181 8.4375 172.969 8.4375C173.756 8.4375 174.375 9.05625 174.375 9.84375C174.375 10.6313 173.756 11.25 172.969 11.25ZM170.156 11.25C169.369 11.25 168.75 10.6313 168.75 9.84375C168.75 9.05625 169.369 8.4375 170.156 8.4375C170.944 8.4375 171.562 9.05625 171.562 9.84375C171.562 10.6313 170.944 11.25 170.156 11.25ZM187.031 11.25C186.244 11.25 185.625 10.6313 185.625 9.84375C185.625 9.05625 186.244 8.4375 187.031 8.4375C187.819 8.4375 188.438 9.05625 188.438 9.84375C188.438 10.6313 187.819 11.25 187.031 11.25ZM189.844 11.25C189.056 11.25 188.438 10.6313 188.438 9.84375C188.438 9.05625 189.056 8.4375 189.844 8.4375C190.631 8.4375 191.25 9.05625 191.25 9.84375C191.25 10.6313 190.631 11.25 189.844 11.25ZM172.969 14.0625C172.181 14.0625 171.562 13.4438 171.562 12.6562C171.562 11.8688 172.181 11.25 172.969 11.25C173.756 11.25 174.375 11.8688 174.375 12.6562C174.375 13.4438 173.756 14.0625 172.969 14.0625ZM170.156 14.0625C169.369 14.0625 168.75 13.4438 168.75 12.6562C168.75 11.8688 169.369 11.25 170.156 11.25C170.944 11.25 171.562 11.8688 171.562 12.6562C171.562 13.4438 170.944 14.0625 170.156 14.0625ZM187.031 14.0625C186.244 14.0625 185.625 13.4438 185.625 12.6562C185.625 11.8688 186.244 11.25 187.031 11.25C187.819 11.25 188.438 11.8688 188.438 12.6562C188.438 13.4438 187.819 14.0625 187.031 14.0625ZM189.844 14.0625C189.056 14.0625 188.438 13.4438 188.438 12.6562C188.438 11.8688 189.056 11.25 189.844 11.25C190.631 11.25 191.25 11.8688 191.25 12.6562C191.25 13.4438 190.631 14.0625 189.844 14.0625ZM172.969 16.875C172.181 16.875 171.562 16.2563 171.562 15.4688C171.562 14.6813 172.181 14.0625 172.969 14.0625C173.756 14.0625 174.375 14.6813 174.375 15.4688C174.375 16.2563 173.756 16.875 172.969 16.875ZM170.156 16.875C169.369 16.875 168.75 16.2563 168.75 15.4688C168.75 14.6813 169.369 14.0625 170.156 14.0625C170.944 14.0625 171.562 14.6813 171.562 15.4688C171.562 16.2563 170.944 16.875 170.156 16.875ZM187.031 16.875C186.244 16.875 185.625 16.2563 185.625 15.4688C185.625 14.6813 186.244 14.0625 187.031 14.0625C187.819 14.0625 188.438 14.6813 188.438 15.4688C188.438 16.2563 187.819 16.875 187.031 16.875ZM189.844 16.875C189.056 16.875 188.438 16.2563 188.438 15.4688C188.438 14.6813 189.056 14.0625 189.844 14.0625C190.631 14.0625 191.25 14.6813 191.25 15.4688C191.25 16.2563 190.631 16.875 189.844 16.875ZM172.969 19.6875C172.181 19.6875 171.562 19.0687 171.562 18.2812C171.562 17.4938 172.181 16.875 172.969 16.875C173.756 16.875 174.375 17.4938 174.375 18.2812C174.375 19.0687 173.756 19.6875 172.969 19.6875ZM187.031 19.6875C186.244 19.6875 185.625 19.0687 185.625 18.2812C185.625 17.4938 186.244 16.875 187.031 16.875C187.819 16.875 188.438 17.4938 188.438 18.2812C188.438 19.0687 187.819 19.6875 187.031 19.6875ZM170.156 19.6875C169.369 19.6875 168.75 19.0687 168.75 18.2812C168.75 17.4938 169.369 16.875 170.156 16.875C170.944 16.875 171.562 17.4938 171.562 18.2812C171.562 19.0687 170.944 19.6875 170.156 19.6875ZM189.844 19.6875C189.056 19.6875 188.438 19.0687 188.438 18.2812C188.438 17.4938 189.056 16.875 189.844 16.875C190.631 16.875 191.25 17.4938 191.25 18.2812C191.25 19.0687 190.631 19.6875 189.844 19.6875ZM172.969 22.5C172.181 22.5 171.562 21.8812 171.562 21.0938C171.562 20.3063 172.181 19.6875 172.969 19.6875C173.756 19.6875 174.375 20.3063 174.375 21.0938C174.375 21.8812 173.756 22.5 172.969 22.5ZM187.031 22.5C186.244 22.5 185.625 21.8812 185.625 21.0938C185.625 20.3063 186.244 19.6875 187.031 19.6875C187.819 19.6875 188.438 20.3063 188.438 21.0938C188.438 21.8812 187.819 22.5 187.031 22.5ZM175.781 22.5C174.994 22.5 174.375 21.8812 174.375 21.0938C174.375 20.3063 174.994 19.6875 175.781 19.6875C176.569 19.6875 177.188 20.3063 177.188 21.0938C177.188 21.8812 176.569 22.5 175.781 22.5ZM184.219 22.5C183.431 22.5 182.812 21.8812 182.812 21.0938C182.812 20.3063 183.431 19.6875 184.219 19.6875C185.006 19.6875 185.625 20.3063 185.625 21.0938C185.625 21.8812 185.006 22.5 184.219 22.5ZM170.156 22.5C169.369 22.5 168.75 21.8812 168.75 21.0938C168.75 20.3063 169.369 19.6875 170.156 19.6875C170.944 19.6875 171.562 20.3063 171.562 21.0938C171.562 21.8812 170.944 22.5 170.156 22.5ZM189.844 22.5C189.056 22.5 188.438 21.8812 188.438 21.0938C188.438 20.3063 189.056 19.6875 189.844 19.6875C190.631 19.6875 191.25 20.3063 191.25 21.0938C191.25 21.8812 190.631 22.5 189.844 22.5ZM187.031 25.3125C186.244 25.3125 185.625 24.6937 185.625 23.9062C185.625 23.1188 186.244 22.5 187.031 22.5C187.819 22.5 188.438 23.1188 188.438 23.9062C188.438 24.6937 187.819 25.3125 187.031 25.3125ZM172.969 25.3125C172.181 25.3125 171.562 24.6937 171.562 23.9062C171.562 23.1188 172.181 22.5 172.969 22.5C173.756 22.5 174.375 23.1188 174.375 23.9062C174.375 24.6937 173.756 25.3125 172.969 25.3125ZM184.219 25.3125C183.431 25.3125 182.812 24.6937 182.812 23.9062C182.812 23.1188 183.431 22.5 184.219 22.5C185.006 22.5 185.625 23.1188 185.625 23.9062C185.625 24.6937 185.006 25.3125 184.219 25.3125ZM181.406 25.3125C180.619 25.3125 180 24.6937 180 23.9062C180 23.1188 180.619 22.5 181.406 22.5C182.194 22.5 182.812 23.1188 182.812 23.9062C182.812 24.6937 182.194 25.3125 181.406 25.3125ZM178.594 25.3125C177.806 25.3125 177.188 24.6937 177.188 23.9062C177.188 23.1188 177.806 22.5 178.594 22.5C179.381 22.5 180 23.1188 180 23.9062C180 24.6937 179.381 25.3125 178.594 25.3125ZM175.781 25.3125C174.994 25.3125 174.375 24.6937 174.375 23.9062C174.375 23.1188 174.994 22.5 175.781 22.5C176.569 22.5 177.188 23.1188 177.188 23.9062C177.188 24.6937 176.569 25.3125 175.781 25.3125ZM175.781 28.125C174.994 28.125 174.375 27.5063 174.375 26.7188C174.375 25.9313 174.994 25.3125 175.781 25.3125C176.569 25.3125 177.188 25.9313 177.188 26.7188C177.188 27.5063 176.569 28.125 175.781 28.125ZM178.594 28.125C177.806 28.125 177.188 27.5063 177.188 26.7188C177.188 25.9313 177.806 25.3125 178.594 25.3125C179.381 25.3125 180 25.9313 180 26.7188C180 27.5063 179.381 28.125 178.594 28.125ZM181.406 28.125C180.619 28.125 180 27.5063 180 26.7188C180 25.9313 180.619 25.3125 181.406 25.3125C182.194 25.3125 182.812 25.9313 182.812 26.7188C182.812 27.5063 182.194 28.125 181.406 28.125ZM184.219 28.125C183.431 28.125 182.812 27.5063 182.812 26.7188C182.812 25.9313 183.431 25.3125 184.219 25.3125C185.006 25.3125 185.625 25.9313 185.625 26.7188C185.625 27.5063 185.006 28.125 184.219 28.125Z" fill="#F6F6F6"/>
<path d="M198.281 2.8125C197.494 2.8125 196.875 2.19375 196.875 1.40625C196.875 0.618751 197.494 0 198.281 0C199.069 0 199.688 0.618751 199.688 1.40625C199.688 2.19375 199.069 2.8125 198.281 2.8125ZM195.469 2.8125C194.681 2.8125 194.062 2.19375 194.062 1.40625C194.062 0.618751 194.681 0 195.469 0C196.256 0 196.875 0.618751 196.875 1.40625C196.875 2.19375 196.256 2.8125 195.469 2.8125ZM215.156 2.8125C214.369 2.8125 213.75 2.19375 213.75 1.40625C213.75 0.618751 214.369 0 215.156 0C215.944 0 216.562 0.618751 216.562 1.40625C216.562 2.19375 215.944 2.8125 215.156 2.8125ZM212.344 2.8125C211.556 2.8125 210.938 2.19375 210.938 1.40625C210.938 0.618751 211.556 0 212.344 0C213.131 0 213.75 0.618751 213.75 1.40625C213.75 2.19375 213.131 2.8125 212.344 2.8125ZM198.281 5.625C197.494 5.625 196.875 5.00625 196.875 4.21875C196.875 3.43125 197.494 2.8125 198.281 2.8125C199.069 2.8125 199.688 3.43125 199.688 4.21875C199.688 5.00625 199.069 5.625 198.281 5.625ZM201.094 5.625C200.306 5.625 199.688 5.00625 199.688 4.21875C199.688 3.43125 200.306 2.8125 201.094 2.8125C201.881 2.8125 202.5 3.43125 202.5 4.21875C202.5 5.00625 201.881 5.625 201.094 5.625ZM195.469 5.625C194.681 5.625 194.062 5.00625 194.062 4.21875C194.062 3.43125 194.681 2.8125 195.469 2.8125C196.256 2.8125 196.875 3.43125 196.875 4.21875C196.875 5.00625 196.256 5.625 195.469 5.625ZM212.344 5.625C211.556 5.625 210.938 5.00625 210.938 4.21875C210.938 3.43125 211.556 2.8125 212.344 2.8125C213.131 2.8125 213.75 3.43125 213.75 4.21875C213.75 5.00625 213.131 5.625 212.344 5.625ZM215.156 5.625C214.369 5.625 213.75 5.00625 213.75 4.21875C213.75 3.43125 214.369 2.8125 215.156 2.8125C215.944 2.8125 216.562 3.43125 216.562 4.21875C216.562 5.00625 215.944 5.625 215.156 5.625ZM215.156 8.4375C214.369 8.4375 213.75 7.81875 213.75 7.03125C213.75 6.24375 214.369 5.625 215.156 5.625C215.944 5.625 216.562 6.24375 216.562 7.03125C216.562 7.81875 215.944 8.4375 215.156 8.4375ZM198.281 8.4375C197.494 8.4375 196.875 7.81875 196.875 7.03125C196.875 6.24375 197.494 5.625 198.281 5.625C199.069 5.625 199.688 6.24375 199.688 7.03125C199.688 7.81875 199.069 8.4375 198.281 8.4375ZM203.906 8.4375C203.119 8.4375 202.5 7.81875 202.5 7.03125C202.5 6.24375 203.119 5.625 203.906 5.625C204.694 5.625 205.312 6.24375 205.312 7.03125C205.312 7.81875 204.694 8.4375 203.906 8.4375ZM201.094 8.4375C200.306 8.4375 199.688 7.81875 199.688 7.03125C199.688 6.24375 200.306 5.625 201.094 5.625C201.881 5.625 202.5 6.24375 202.5 7.03125C202.5 7.81875 201.881 8.4375 201.094 8.4375ZM195.469 8.4375C194.681 8.4375 194.062 7.81875 194.062 7.03125C194.062 6.24375 194.681 5.625 195.469 5.625C196.256 5.625 196.875 6.24375 196.875 7.03125C196.875 7.81875 196.256 8.4375 195.469 8.4375ZM212.344 8.4375C211.556 8.4375 210.938 7.81875 210.938 7.03125C210.938 6.24375 211.556 5.625 212.344 5.625C213.131 5.625 213.75 6.24375 213.75 7.03125C213.75 7.81875 213.131 8.4375 212.344 8.4375ZM198.281 11.25C197.494 11.25 196.875 10.6313 196.875 9.84375C196.875 9.05625 197.494 8.4375 198.281 8.4375C199.069 8.4375 199.688 9.05625 199.688 9.84375C199.688 10.6313 199.069 11.25 198.281 11.25ZM201.094 11.25C200.306 11.25 199.688 10.6313 199.688 9.84375C199.688 9.05625 200.306 8.4375 201.094 8.4375C201.881 8.4375 202.5 9.05625 202.5 9.84375C202.5 10.6313 201.881 11.25 201.094 11.25ZM215.156 11.25C214.369 11.25 213.75 10.6313 213.75 9.84375C213.75 9.05625 214.369 8.4375 215.156 8.4375C215.944 8.4375 216.562 9.05625 216.562 9.84375C216.562 10.6313 215.944 11.25 215.156 11.25ZM212.344 11.25C211.556 11.25 210.938 10.6313 210.938 9.84375C210.938 9.05625 211.556 8.4375 212.344 8.4375C213.131 8.4375 213.75 9.05625 213.75 9.84375C213.75 10.6313 213.131 11.25 212.344 11.25ZM203.906 11.25C203.119 11.25 202.5 10.6313 202.5 9.84375C202.5 9.05625 203.119 8.4375 203.906 8.4375C204.694 8.4375 205.312 9.05625 205.312 9.84375C205.312 10.6313 204.694 11.25 203.906 11.25ZM195.469 11.25C194.681 11.25 194.062 10.6313 194.062 9.84375C194.062 9.05625 194.681 8.4375 195.469 8.4375C196.256 8.4375 196.875 9.05625 196.875 9.84375C196.875 10.6313 196.256 11.25 195.469 11.25ZM206.719 11.25C205.931 11.25 205.312 10.6313 205.312 9.84375C205.312 9.05625 205.931 8.4375 206.719 8.4375C207.506 8.4375 208.125 9.05625 208.125 9.84375C208.125 10.6313 207.506 11.25 206.719 11.25ZM203.906 14.0625C203.119 14.0625 202.5 13.4438 202.5 12.6562C202.5 11.8688 203.119 11.25 203.906 11.25C204.694 11.25 205.312 11.8688 205.312 12.6562C205.312 13.4438 204.694 14.0625 203.906 14.0625ZM209.531 14.0625C208.744 14.0625 208.125 13.4438 208.125 12.6562C208.125 11.8688 208.744 11.25 209.531 11.25C210.319 11.25 210.938 11.8688 210.938 12.6562C210.938 13.4438 210.319 14.0625 209.531 14.0625ZM206.719 14.0625C205.931 14.0625 205.312 13.4438 205.312 12.6562C205.312 11.8688 205.931 11.25 206.719 11.25C207.506 11.25 208.125 11.8688 208.125 12.6562C208.125 13.4438 207.506 14.0625 206.719 14.0625ZM215.156 14.0625C214.369 14.0625 213.75 13.4438 213.75 12.6562C213.75 11.8688 214.369 11.25 215.156 11.25C215.944 11.25 216.562 11.8688 216.562 12.6562C216.562 13.4438 215.944 14.0625 215.156 14.0625ZM212.344 14.0625C211.556 14.0625 210.938 13.4438 210.938 12.6562C210.938 11.8688 211.556 11.25 212.344 11.25C213.131 11.25 213.75 11.8688 213.75 12.6562C213.75 13.4438 213.131 14.0625 212.344 14.0625ZM198.281 14.0625C197.494 14.0625 196.875 13.4438 196.875 12.6562C196.875 11.8688 197.494 11.25 198.281 11.25C199.069 11.25 199.688 11.8688 199.688 12.6562C199.688 13.4438 199.069 14.0625 198.281 14.0625ZM195.469 14.0625C194.681 14.0625 194.062 13.4438 194.062 12.6562C194.062 11.8688 194.681 11.25 195.469 11.25C196.256 11.25 196.875 11.8688 196.875 12.6562C196.875 13.4438 196.256 14.0625 195.469 14.0625ZM212.344 16.875C211.556 16.875 210.938 16.2563 210.938 15.4688C210.938 14.6813 211.556 14.0625 212.344 14.0625C213.131 14.0625 213.75 14.6813 213.75 15.4688C213.75 16.2563 213.131 16.875 212.344 16.875ZM209.531 16.875C208.744 16.875 208.125 16.2563 208.125 15.4688C208.125 14.6813 208.744 14.0625 209.531 14.0625C210.319 14.0625 210.938 14.6813 210.938 15.4688C210.938 16.2563 210.319 16.875 209.531 16.875ZM206.719 16.875C205.931 16.875 205.312 16.2563 205.312 15.4688C205.312 14.6813 205.931 14.0625 206.719 14.0625C207.506 14.0625 208.125 14.6813 208.125 15.4688C208.125 16.2563 207.506 16.875 206.719 16.875ZM215.156 16.875C214.369 16.875 213.75 16.2563 213.75 15.4688C213.75 14.6813 214.369 14.0625 215.156 14.0625C215.944 14.0625 216.562 14.6813 216.562 15.4688C216.562 16.2563 215.944 16.875 215.156 16.875ZM198.281 16.875C197.494 16.875 196.875 16.2563 196.875 15.4688C196.875 14.6813 197.494 14.0625 198.281 14.0625C199.069 14.0625 199.688 14.6813 199.688 15.4688C199.688 16.2563 199.069 16.875 198.281 16.875ZM195.469 16.875C194.681 16.875 194.062 16.2563 194.062 15.4688C194.062 14.6813 194.681 14.0625 195.469 14.0625C196.256 14.0625 196.875 14.6813 196.875 15.4688C196.875 16.2563 196.256 16.875 195.469 16.875ZM195.469 19.6875C194.681 19.6875 194.062 19.0687 194.062 18.2812C194.062 17.4938 194.681 16.875 195.469 16.875C196.256 16.875 196.875 17.4938 196.875 18.2812C196.875 19.0687 196.256 19.6875 195.469 19.6875ZM215.156 19.6875C214.369 19.6875 213.75 19.0687 213.75 18.2812C213.75 17.4938 214.369 16.875 215.156 16.875C215.944 16.875 216.562 17.4938 216.562 18.2812C216.562 19.0687 215.944 19.6875 215.156 19.6875ZM212.344 19.6875C211.556 19.6875 210.938 19.0687 210.938 18.2812C210.938 17.4938 211.556 16.875 212.344 16.875C213.131 16.875 213.75 17.4938 213.75 18.2812C213.75 19.0687 213.131 19.6875 212.344 19.6875ZM209.531 19.6875C208.744 19.6875 208.125 19.0687 208.125 18.2812C208.125 17.4938 208.744 16.875 209.531 16.875C210.319 16.875 210.938 17.4938 210.938 18.2812C210.938 19.0687 210.319 19.6875 209.531 19.6875ZM198.281 19.6875C197.494 19.6875 196.875 19.0687 196.875 18.2812C196.875 17.4938 197.494 16.875 198.281 16.875C199.069 16.875 199.688 17.4938 199.688 18.2812C199.688 19.0687 199.069 19.6875 198.281 19.6875ZM195.469 22.5C194.681 22.5 194.062 21.8812 194.062 21.0938C194.062 20.3063 194.681 19.6875 195.469 19.6875C196.256 19.6875 196.875 20.3063 196.875 21.0938C196.875 21.8812 196.256 22.5 195.469 22.5ZM215.156 22.5C214.369 22.5 213.75 21.8812 213.75 21.0938C213.75 20.3063 214.369 19.6875 215.156 19.6875C215.944 19.6875 216.562 20.3063 216.562 21.0938C216.562 21.8812 215.944 22.5 215.156 22.5ZM212.344 22.5C211.556 22.5 210.938 21.8812 210.938 21.0938C210.938 20.3063 211.556 19.6875 212.344 19.6875C213.131 19.6875 213.75 20.3063 213.75 21.0938C213.75 21.8812 213.131 22.5 212.344 22.5ZM198.281 22.5C197.494 22.5 196.875 21.8812 196.875 21.0938C196.875 20.3063 197.494 19.6875 198.281 19.6875C199.069 19.6875 199.688 20.3063 199.688 21.0938C199.688 21.8812 199.069 22.5 198.281 22.5ZM195.469 25.3125C194.681 25.3125 194.062 24.6937 194.062 23.9062C194.062 23.1188 194.681 22.5 195.469 22.5C196.256 22.5 196.875 23.1188 196.875 23.9062C196.875 24.6937 196.256 25.3125 195.469 25.3125ZM215.156 25.3125C214.369 25.3125 213.75 24.6937 213.75 23.9062C213.75 23.1188 214.369 22.5 215.156 22.5C215.944 22.5 216.562 23.1188 216.562 23.9062C216.562 24.6937 215.944 25.3125 215.156 25.3125ZM212.344 25.3125C211.556 25.3125 210.938 24.6937 210.938 23.9062C210.938 23.1188 211.556 22.5 212.344 22.5C213.131 22.5 213.75 23.1188 213.75 23.9062C213.75 24.6937 213.131 25.3125 212.344 25.3125ZM198.281 25.3125C197.494 25.3125 196.875 24.6937 196.875 23.9062C196.875 23.1188 197.494 22.5 198.281 22.5C199.069 22.5 199.688 23.1188 199.688 23.9062C199.688 24.6937 199.069 25.3125 198.281 25.3125ZM195.469 28.125C194.681 28.125 194.062 27.5063 194.062 26.7188C194.062 25.9313 194.681 25.3125 195.469 25.3125C196.256 25.3125 196.875 25.9313 196.875 26.7188C196.875 27.5063 196.256 28.125 195.469 28.125ZM198.281 28.125C197.494 28.125 196.875 27.5063 196.875 26.7188C196.875 25.9313 197.494 25.3125 198.281 25.3125C199.069 25.3125 199.688 25.9313 199.688 26.7188C199.688 27.5063 199.069 28.125 198.281 28.125ZM212.344 28.125C211.556 28.125 210.938 27.5063 210.938 26.7188C210.938 25.9313 211.556 25.3125 212.344 25.3125C213.131 25.3125 213.75 25.9313 213.75 26.7188C213.75 27.5063 213.131 28.125 212.344 28.125ZM215.156 28.125C214.369 28.125 213.75 27.5063 213.75 26.7188C213.75 25.9313 214.369 25.3125 215.156 25.3125C215.944 25.3125 216.562 25.9313 216.562 26.7188C216.562 27.5063 215.944 28.125 215.156 28.125Z" fill="#F6F6F6"/>
<path d="M226.406 2.8125C225.619 2.8125 225 2.19375 225 1.40625C225 0.618751 225.619 0 226.406 0C227.194 0 227.812 0.618751 227.812 1.40625C227.812 2.19375 227.194 2.8125 226.406 2.8125ZM229.219 2.8125C228.431 2.8125 227.812 2.19375 227.812 1.40625C227.812 0.618751 228.431 0 229.219 0C230.006 0 230.625 0.618751 230.625 1.40625C230.625 2.19375 230.006 2.8125 229.219 2.8125ZM223.594 2.8125C222.806 2.8125 222.188 2.19375 222.188 1.40625C222.188 0.618751 222.806 0 223.594 0C224.381 0 225 0.618751 225 1.40625C225 2.19375 224.381 2.8125 223.594 2.8125ZM220.781 2.8125C219.994 2.8125 219.375 2.19375 219.375 1.40625C219.375 0.618751 219.994 0 220.781 0C221.569 0 222.188 0.618751 222.188 1.40625C222.188 2.19375 221.569 2.8125 220.781 2.8125ZM232.031 2.8125C231.244 2.8125 230.625 2.19375 230.625 1.40625C230.625 0.618751 231.244 0 232.031 0C232.819 0 233.438 0.618751 233.438 1.40625C233.438 2.19375 232.819 2.8125 232.031 2.8125ZM229.219 5.625C228.431 5.625 227.812 5.00625 227.812 4.21875C227.812 3.43125 228.431 2.8125 229.219 2.8125C230.006 2.8125 230.625 3.43125 230.625 4.21875C230.625 5.00625 230.006 5.625 229.219 5.625ZM237.656 5.625C236.869 5.625 236.25 5.00625 236.25 4.21875C236.25 3.43125 236.869 2.8125 237.656 2.8125C238.444 2.8125 239.062 3.43125 239.062 4.21875C239.062 5.00625 238.444 5.625 237.656 5.625ZM223.594 5.625C222.806 5.625 222.188 5.00625 222.188 4.21875C222.188 3.43125 222.806 2.8125 223.594 2.8125C224.381 2.8125 225 3.43125 225 4.21875C225 5.00625 224.381 5.625 223.594 5.625ZM232.031 5.625C231.244 5.625 230.625 5.00625 230.625 4.21875C230.625 3.43125 231.244 2.8125 232.031 2.8125C232.819 2.8125 233.438 3.43125 233.438 4.21875C233.438 5.00625 232.819 5.625 232.031 5.625ZM234.844 5.625C234.056 5.625 233.438 5.00625 233.438 4.21875C233.438 3.43125 234.056 2.8125 234.844 2.8125C235.631 2.8125 236.25 3.43125 236.25 4.21875C236.25 5.00625 235.631 5.625 234.844 5.625ZM220.781 5.625C219.994 5.625 219.375 5.00625 219.375 4.21875C219.375 3.43125 219.994 2.8125 220.781 2.8125C221.569 2.8125 222.188 3.43125 222.188 4.21875C222.188 5.00625 221.569 5.625 220.781 5.625ZM226.406 5.625C225.619 5.625 225 5.00625 225 4.21875C225 3.43125 225.619 2.8125 226.406 2.8125C227.194 2.8125 227.812 3.43125 227.812 4.21875C227.812 5.00625 227.194 5.625 226.406 5.625ZM223.594 8.4375C222.806 8.4375 222.188 7.81875 222.188 7.03125C222.188 6.24375 222.806 5.625 223.594 5.625C224.381 5.625 225 6.24375 225 7.03125C225 7.81875 224.381 8.4375 223.594 8.4375ZM237.656 8.4375C236.869 8.4375 236.25 7.81875 236.25 7.03125C236.25 6.24375 236.869 5.625 237.656 5.625C238.444 5.625 239.062 6.24375 239.062 7.03125C239.062 7.81875 238.444 8.4375 237.656 8.4375ZM220.781 8.4375C219.994 8.4375 219.375 7.81875 219.375 7.03125C219.375 6.24375 219.994 5.625 220.781 5.625C221.569 5.625 222.188 6.24375 222.188 7.03125C222.188 7.81875 221.569 8.4375 220.781 8.4375ZM234.844 8.4375C234.056 8.4375 233.438 7.81875 233.438 7.03125C233.438 6.24375 234.056 5.625 234.844 5.625C235.631 5.625 236.25 6.24375 236.25 7.03125C236.25 7.81875 235.631 8.4375 234.844 8.4375ZM240.469 8.4375C239.681 8.4375 239.062 7.81875 239.062 7.03125C239.062 6.24375 239.681 5.625 240.469 5.625C241.256 5.625 241.875 6.24375 241.875 7.03125C241.875 7.81875 241.256 8.4375 240.469 8.4375ZM237.656 11.25C236.869 11.25 236.25 10.6313 236.25 9.84375C236.25 9.05625 236.869 8.4375 237.656 8.4375C238.444 8.4375 239.062 9.05625 239.062 9.84375C239.062 10.6313 238.444 11.25 237.656 11.25ZM240.469 11.25C239.681 11.25 239.062 10.6313 239.062 9.84375C239.062 9.05625 239.681 8.4375 240.469 8.4375C241.256 8.4375 241.875 9.05625 241.875 9.84375C241.875 10.6313 241.256 11.25 240.469 11.25ZM223.594 11.25C222.806 11.25 222.188 10.6313 222.188 9.84375C222.188 9.05625 222.806 8.4375 223.594 8.4375C224.381 8.4375 225 9.05625 225 9.84375C225 10.6313 224.381 11.25 223.594 11.25ZM220.781 11.25C219.994 11.25 219.375 10.6313 219.375 9.84375C219.375 9.05625 219.994 8.4375 220.781 8.4375C221.569 8.4375 222.188 9.05625 222.188 9.84375C222.188 10.6313 221.569 11.25 220.781 11.25ZM220.781 14.0625C219.994 14.0625 219.375 13.4438 219.375 12.6562C219.375 11.8688 219.994 11.25 220.781 11.25C221.569 11.25 222.188 11.8688 222.188 12.6562C222.188 13.4438 221.569 14.0625 220.781 14.0625ZM223.594 14.0625C222.806 14.0625 222.188 13.4438 222.188 12.6562C222.188 11.8688 222.806 11.25 223.594 11.25C224.381 11.25 225 11.8688 225 12.6562C225 13.4438 224.381 14.0625 223.594 14.0625ZM237.656 14.0625C236.869 14.0625 236.25 13.4438 236.25 12.6562C236.25 11.8688 236.869 11.25 237.656 11.25C238.444 11.25 239.062 11.8688 239.062 12.6562C239.062 13.4438 238.444 14.0625 237.656 14.0625ZM240.469 14.0625C239.681 14.0625 239.062 13.4438 239.062 12.6562C239.062 11.8688 239.681 11.25 240.469 11.25C241.256 11.25 241.875 11.8688 241.875 12.6562C241.875 13.4438 241.256 14.0625 240.469 14.0625ZM220.781 16.875C219.994 16.875 219.375 16.2563 219.375 15.4688C219.375 14.6813 219.994 14.0625 220.781 14.0625C221.569 14.0625 222.188 14.6813 222.188 15.4688C222.188 16.2563 221.569 16.875 220.781 16.875ZM237.656 16.875C236.869 16.875 236.25 16.2563 236.25 15.4688C236.25 14.6813 236.869 14.0625 237.656 14.0625C238.444 14.0625 239.062 14.6813 239.062 15.4688C239.062 16.2563 238.444 16.875 237.656 16.875ZM223.594 16.875C222.806 16.875 222.188 16.2563 222.188 15.4688C222.188 14.6813 222.806 14.0625 223.594 14.0625C224.381 14.0625 225 14.6813 225 15.4688C225 16.2563 224.381 16.875 223.594 16.875ZM240.469 16.875C239.681 16.875 239.062 16.2563 239.062 15.4688C239.062 14.6813 239.681 14.0625 240.469 14.0625C241.256 14.0625 241.875 14.6813 241.875 15.4688C241.875 16.2563 241.256 16.875 240.469 16.875ZM240.469 19.6875C239.681 19.6875 239.062 19.0687 239.062 18.2812C239.062 17.4938 239.681 16.875 240.469 16.875C241.256 16.875 241.875 17.4938 241.875 18.2812C241.875 19.0687 241.256 19.6875 240.469 19.6875ZM237.656 19.6875C236.869 19.6875 236.25 19.0687 236.25 18.2812C236.25 17.4938 236.869 16.875 237.656 16.875C238.444 16.875 239.062 17.4938 239.062 18.2812C239.062 19.0687 238.444 19.6875 237.656 19.6875ZM223.594 19.6875C222.806 19.6875 222.188 19.0687 222.188 18.2812C222.188 17.4938 222.806 16.875 223.594 16.875C224.381 16.875 225 17.4938 225 18.2812C225 19.0687 224.381 19.6875 223.594 19.6875ZM220.781 19.6875C219.994 19.6875 219.375 19.0687 219.375 18.2812C219.375 17.4938 219.994 16.875 220.781 16.875C221.569 16.875 222.188 17.4938 222.188 18.2812C222.188 19.0687 221.569 19.6875 220.781 19.6875ZM234.844 22.5C234.056 22.5 233.438 21.8812 233.438 21.0938C233.438 20.3063 234.056 19.6875 234.844 19.6875C235.631 19.6875 236.25 20.3063 236.25 21.0938C236.25 21.8812 235.631 22.5 234.844 22.5ZM223.594 22.5C222.806 22.5 222.188 21.8812 222.188 21.0938C222.188 20.3063 222.806 19.6875 223.594 19.6875C224.381 19.6875 225 20.3063 225 21.0938C225 21.8812 224.381 22.5 223.594 22.5ZM237.656 22.5C236.869 22.5 236.25 21.8812 236.25 21.0938C236.25 20.3063 236.869 19.6875 237.656 19.6875C238.444 19.6875 239.062 20.3063 239.062 21.0938C239.062 21.8812 238.444 22.5 237.656 22.5ZM220.781 22.5C219.994 22.5 219.375 21.8812 219.375 21.0938C219.375 20.3063 219.994 19.6875 220.781 19.6875C221.569 19.6875 222.188 20.3063 222.188 21.0938C222.188 21.8812 221.569 22.5 220.781 22.5ZM240.469 22.5C239.681 22.5 239.062 21.8812 239.062 21.0938C239.062 20.3063 239.681 19.6875 240.469 19.6875C241.256 19.6875 241.875 20.3063 241.875 21.0938C241.875 21.8812 241.256 22.5 240.469 22.5ZM220.781 25.3125C219.994 25.3125 219.375 24.6937 219.375 23.9062C219.375 23.1188 219.994 22.5 220.781 22.5C221.569 22.5 222.188 23.1188 222.188 23.9062C222.188 24.6937 221.569 25.3125 220.781 25.3125ZM223.594 25.3125C222.806 25.3125 222.188 24.6937 222.188 23.9062C222.188 23.1188 222.806 22.5 223.594 22.5C224.381 22.5 225 23.1188 225 23.9062C225 24.6937 224.381 25.3125 223.594 25.3125ZM226.406 25.3125C225.619 25.3125 225 24.6937 225 23.9062C225 23.1188 225.619 22.5 226.406 22.5C227.194 22.5 227.812 23.1188 227.812 23.9062C227.812 24.6937 227.194 25.3125 226.406 25.3125ZM237.656 25.3125C236.869 25.3125 236.25 24.6937 236.25 23.9062C236.25 23.1188 236.869 22.5 237.656 22.5C238.444 22.5 239.062 23.1188 239.062 23.9062C239.062 24.6937 238.444 25.3125 237.656 25.3125ZM234.844 25.3125C234.056 25.3125 233.438 24.6937 233.438 23.9062C233.438 23.1188 234.056 22.5 234.844 22.5C235.631 22.5 236.25 23.1188 236.25 23.9062C236.25 24.6937 235.631 25.3125 234.844 25.3125ZM232.031 25.3125C231.244 25.3125 230.625 24.6937 230.625 23.9062C230.625 23.1188 231.244 22.5 232.031 22.5C232.819 22.5 233.438 23.1188 233.438 23.9062C233.438 24.6937 232.819 25.3125 232.031 25.3125ZM229.219 25.3125C228.431 25.3125 227.812 24.6937 227.812 23.9062C227.812 23.1188 228.431 22.5 229.219 22.5C230.006 22.5 230.625 23.1188 230.625 23.9062C230.625 24.6937 230.006 25.3125 229.219 25.3125ZM220.781 28.125C219.994 28.125 219.375 27.5063 219.375 26.7188C219.375 25.9313 219.994 25.3125 220.781 25.3125C221.569 25.3125 222.188 25.9313 222.188 26.7188C222.188 27.5063 221.569 28.125 220.781 28.125ZM223.594 28.125C222.806 28.125 222.188 27.5063 222.188 26.7188C222.188 25.9313 222.806 25.3125 223.594 25.3125C224.381 25.3125 225 25.9313 225 26.7188C225 27.5063 224.381 28.125 223.594 28.125ZM232.031 28.125C231.244 28.125 230.625 27.5063 230.625 26.7188C230.625 25.9313 231.244 25.3125 232.031 25.3125C232.819 25.3125 233.438 25.9313 233.438 26.7188C233.438 27.5063 232.819 28.125 232.031 28.125ZM226.406 28.125C225.619 28.125 225 27.5063 225 26.7188C225 25.9313 225.619 25.3125 226.406 25.3125C227.194 25.3125 227.812 25.9313 227.812 26.7188C227.812 27.5063 227.194 28.125 226.406 28.125ZM229.219 28.125C228.431 28.125 227.812 27.5063 227.812 26.7188C227.812 25.9313 228.431 25.3125 229.219 25.3125C230.006 25.3125 230.625 25.9313 230.625 26.7188C230.625 27.5063 230.006 28.125 229.219 28.125Z" fill="#F6F6F6"/>
</svg>
